<?xml version="1.0" standalone="no"?>
<!DOCTYPE svg PUBLIC "-//W3C//DTD SVG 20010904//EN"
 "http://www.w3.org/TR/2001/REC-SVG-20010904/DTD/svg10.dtd">
<svg version="1.0" xmlns="http://www.w3.org/2000/svg"
 width="700.000000pt" height="700.000000pt" viewBox="0 0 700.000000 700.000000"
 preserveAspectRatio="xMidYMid meet">
<metadata>
Created by potrace 1.14, written by Peter Selinger 2001-2017
</metadata>
<g transform="translate(0.000000,700.000000) scale(0.100000,-0.100000)"
fill="#000000" stroke="none">
<path d="M6034 6552 c-71 -46 -328 -196 -473 -277 -152 -84 -281 -143 -506
-230 -488 -189 -485 -187 -485 -210 0 -17 16 -22 105 -30 39 -4 81 -9 94 -12
l24 -6 -26 -13 c-37 -20 -319 -91 -449 -113 -143 -25 -214 -34 -208 -28 10 10
301 167 362 195 35 16 119 57 188 90 191 92 340 162 345 162 2 0 32 13 67 29
35 16 149 67 253 114 227 101 425 198 425 209 0 14 -24 9 -186 -43 -248 -80
-454 -163 -734 -297 -69 -32 -174 -83 -235 -111 -60 -29 -119 -57 -129 -62
-11 -6 -51 -27 -90 -46 -164 -82 -676 -385 -696 -413 -9 -13 -201 -142 -205
-138 -2 2 -5 24 -6 48 -2 31 11 87 43 183 l46 137 -74 0 c-58 0 -74 3 -74 15
0 37 -86 272 -139 380 -57 115 -187 302 -207 298 -5 -1 -12 -15 -15 -31 -25
-125 -202 -216 -323 -166 -44 18 1 -19 112 -92 140 -92 259 -207 331 -319 28
-44 51 -83 51 -86 0 -3 -42 -9 -92 -12 -51 -3 -104 -9 -117 -14 -22 -9 -15
-15 80 -67 128 -72 250 -157 281 -196 43 -54 138 -118 221 -150 45 -17 89 -35
97 -40 58 -38 317 -144 536 -220 112 -38 303 -91 509 -140 396 -96 433 -111
563 -234 229 -219 424 -604 487 -965 23 -130 38 -383 30 -511 -21 -375 -137
-732 -340 -1045 -161 -249 -460 -538 -734 -708 -167 -104 -501 -231 -738 -281
-369 -78 -799 -80 -1158 -6 -323 67 -686 222 -990 424 -143 95 -472 338 -565
418 -47 40 -115 96 -151 125 -66 52 -200 193 -234 246 -10 15 -19 26 -22 24
-5 -6 62 -194 107 -297 78 -181 229 -429 366 -600 91 -114 309 -331 414 -412
338 -261 718 -435 1130 -518 210 -42 337 -54 600 -54 193 -1 288 3 390 17 419
57 844 212 1164 425 391 259 701 614 907 1037 98 202 135 301 184 490 68 267
80 360 80 665 0 310 -9 385 -75 645 -66 259 -148 456 -290 696 -171 289 -434
572 -677 727 -40 26 -72 50 -73 53 0 3 42 27 93 54 266 139 484 333 640 570
134 205 287 559 287 665 0 43 -15 90 -28 90 -5 0 -35 -17 -68 -38z"/>
<path d="M2529 4206 c-81 -23 -171 -79 -245 -151 -86 -85 -107 -132 -77 -174
34 -44 49 -39 136 52 91 94 137 118 268 138 96 15 170 1 263 -51 41 -22 80
-40 88 -40 20 0 48 32 48 56 0 54 -95 133 -198 164 -74 23 -210 26 -283 6z"/>
<path d="M4204 4199 c-69 -21 -148 -71 -176 -109 -10 -14 -19 -41 -20 -59 -3
-30 1 -36 25 -45 24 -9 35 -7 65 12 86 53 125 66 219 70 158 7 265 -39 374
-162 35 -39 58 -56 75 -56 28 0 64 32 64 57 0 65 -124 199 -235 254 -126 62
-272 76 -391 38z"/>
<path d="M2589 3927 c-104 -30 -194 -107 -249 -216 -132 -262 -41 -645 179
-755 61 -30 92 -37 168 -37 83 0 140 27 214 100 100 100 151 246 151 426 -1
153 -46 287 -127 382 -73 86 -226 131 -336 100z"/>
<path d="M4282 3930 c-141 -29 -276 -180 -311 -348 -28 -135 -5 -326 55 -443
36 -73 122 -160 191 -195 48 -24 70 -29 128 -29 312 1 505 462 337 805 -37 76
-127 163 -194 188 -66 25 -149 33 -206 22z"/>
<path d="M1913 2910 c-201 -36 -331 -197 -264 -328 70 -135 316 -223 536 -193
160 23 234 61 274 144 26 53 26 90 1 145 -44 96 -158 185 -281 218 -71 18
-201 25 -266 14z"/>
<path d="M4898 2910 c-157 -27 -281 -104 -338 -212 -66 -124 -8 -230 158 -291
84 -30 267 -29 377 2 213 60 315 172 276 303 -16 52 -82 123 -145 155 -85 43
-222 61 -328 43z"/>
<path d="M2882 2757 c-30 -32 -29 -84 4 -133 90 -135 265 -256 434 -300 92
-25 294 -25 375 -1 137 41 243 105 351 213 80 79 106 120 107 172 2 71 -82 98
-125 40 -13 -17 -57 -66 -98 -107 -126 -127 -261 -185 -430 -184 -170 1 -317
66 -428 189 -30 32 -69 76 -88 97 -39 43 -71 48 -102 14z"/>
</g>
</svg>
