<?xml version="1.0" encoding="utf-8"?>
<svg viewBox="0 0 1024 1024" width="1024" height="1024" xmlns="http://www.w3.org/2000/svg">
  <g stroke-width="2.00" fill="none" stroke-linecap="butt" transform="matrix(1.7606709003448486, 0, 0, 1.7606709003448486, -374.298828125, -410.80596923828125)">
    <path stroke="#fb9e76" vector-effect="non-scaling-stroke" d=" M 508.02 341.53 L 496.35 342.08"/>
    <path stroke="#829a87" vector-effect="non-scaling-stroke" d=" M 496.35 342.08 Q 492.04 324.58 484.21 308.53 Q 477.63 295.06 466.93 283.58"/>
    <path stroke="#a8cb9f" vector-effect="non-scaling-stroke" d=" M 466.93 283.58 Q 463.84 277.83 458.52 276.53 C 448.12 273.99 433.49 284.55 435.19 296.49 Q 435.59 299.36 437.35 300.24"/>
    <path stroke="#829a87" vector-effect="non-scaling-stroke" d=" M 437.35 300.24 Q 439.08 302.80 440.88 303.89 Q 448.14 308.29 455.08 313.18 Q 470.95 324.39 480.33 342.76"/>
    <path stroke="#fb9e76" vector-effect="non-scaling-stroke" d=" M 480.33 342.76 Q 476.08 343.11 471.75 343.00 Q 468.65 342.92 459.70 344.66"/>
    <path stroke="#ffc96f" vector-effect="non-scaling-stroke" d=" M 459.70 344.66 Q 452.41 345.22 439.52 348.31 C 415.33 354.12 392.46 363.38 373.42 376.67 C 369.90 379.12 366.07 381.28 362.73 383.88 Q 341.99 400.04 325.18 420.46"/>
    <path stroke="#ffbd6e" vector-effect="non-scaling-stroke" d=" M 325.18 420.46 Q 314.96 433.46 306.46 447.71 Q 284.43 484.64 278.39 527.29 Q 276.66 539.55 276.58 547.21"/>
    <path stroke="#ffb66e" vector-effect="non-scaling-stroke" d=" M 276.58 547.21 Q 274.31 585.32 285.63 621.76"/>
    <path stroke="#fb9e76" vector-effect="non-scaling-stroke" d=" M 285.63 621.76 Q 292.79 643.62 300.80 658.35 Q 310.58 676.36 320.76 689.77 Q 329.65 701.47 338.13 710.01 Q 342.03 713.93 346.45 718.32 C 354.86 726.68 365.58 734.41 376.07 741.56 Q 382.69 746.06 389.53 749.62 Q 404.94 757.64 419.48 763.30 Q 426.77 766.13 436.13 768.46"/>
    <path stroke="#ffbd6e" vector-effect="non-scaling-stroke" d=" M 436.13 768.46 Q 433.77 768.92 431.34 768.71 Q 427.96 768.42 426.62 768.50 Q 402.94 769.94 379.25 771.35 Q 365.11 772.20 351.13 774.38 Q 347.16 774.99 343.92 776.67 A 1.25 1.25 0.0 0 0 343.84 778.85 Q 346.24 780.32 349.35 780.85 Q 359.31 782.56 369.16 783.82 Q 384.92 785.85 404.17 787.79 Q 414.62 788.84 424.22 789.44 Q 438.61 790.35 449.01 790.78 C 457.53 791.14 465.65 791.81 473.85 792.05 Q 498.25 792.76 523.29 792.17 Q 560.21 791.29 594.23 788.90 Q 620.65 787.05 659.25 781.16 C 661.05 780.88 662.98 780.13 664.41 778.95 A 1.49 1.49 0.0 0 0 664.28 776.56 Q 663.05 775.75 661.66 775.39 Q 655.90 773.89 649.25 773.21 C 625.77 770.78 602.25 770.04 578.68 768.74 Q 577.64 768.68 574.59 768.86 Q 572.44 768.98 570.49 768.56"/>
    <path stroke="#fb9e76" vector-effect="non-scaling-stroke" d=" M 570.49 768.56 Q 601.13 759.59 624.15 745.92 Q 669.04 719.25 698.99 671.78 C 701.67 667.53 703.67 662.66 706.16 658.14 C 714.39 643.23 720.40 626.51 724.33 610.18 Q 727.98 594.97 729.49 581.42 Q 730.98 567.97 730.42 547.74 C 729.93 530.16 726.94 514.75 721.77 496.70 Q 716.11 476.92 706.57 458.94 Q 695.87 438.78 686.11 426.50 Q 679.05 417.63 669.75 408.00 Q 656.52 394.30 640.59 384.24 Q 638.72 383.05 636.50 381.89"/>
    <path stroke="#829a87" vector-effect="non-scaling-stroke" d=" M 636.50 381.89 Q 644.00 378.07 650.91 374.37 C 665.77 366.41 676.68 356.22 687.72 343.72 Q 694.81 335.70 699.06 328.79 Q 706.90 316.06 714.26 300.24 Q 720.85 286.08 722.22 274.75 Q 722.59 271.64 719.99 267.11"/>
    <path stroke="#a8cb9f" vector-effect="non-scaling-stroke" d=" M 719.99 267.11 Q 709.89 261.05 696.23 259.12 Q 673.60 255.92 656.06 255.81 Q 618.45 255.57 584.19 268.76 C 563.35 276.79 546.31 288.55 531.29 304.23 C 521.35 314.60 512.79 328.00 508.02 341.53"/>
    <path stroke="#2b6e4b" vector-effect="non-scaling-stroke" d=" M 719.99 267.11 Q 696.00 282.11 672.18 295.16 Q 658.82 302.48 646.58 307.50 Q 634.36 312.51 602.86 324.34 Q 598.96 325.81 594.01 328.18 C 593.37 328.48 592.74 329.17 592.31 329.73 A 1.06 1.06 0.0 0 0 593.02 331.42 Q 598.83 332.17 604.85 332.66 Q 607.75 332.89 610.49 333.69 A 0.46 0.46 0.0 0 1 610.66 334.49 Q 609.73 335.27 608.54 335.66 Q 586.26 342.95 561.13 346.55 Q 557.30 347.10 553.82 347.26 Q 552.77 347.31 553.68 346.79 C 564.27 340.69 574.73 334.91 585.76 329.62 Q 592.75 326.27 599.11 323.18 Q 623.67 311.23 654.45 297.97 C 666.48 292.79 678.39 286.93 690.05 280.93 Q 690.16 280.87 690.24 280.77 Q 690.37 280.58 690.32 280.42 Q 690.19 280.04 689.79 280.08 Q 688.21 280.25 686.77 280.67 Q 655.45 289.70 626.29 303.15 Q 597.25 316.54 568.37 331.26 Q 555.02 338.07 528.70 354.67 Q 523.53 357.94 507.91 369.20 C 506.04 370.54 503.97 371.64 502.04 372.89 A 1.10 1.10 0.0 0 1 500.34 371.97 L 500.33 366.85"/>
    <path stroke="#a4723a" vector-effect="non-scaling-stroke" d=" M 500.33 366.85 L 508.45 342.04 Q 508.53 341.79 508.33 341.62 Q 508.18 341.50 508.02 341.53"/>
    <path stroke="#7e4122" vector-effect="non-scaling-stroke" d=" M 636.50 381.89 Q 634.28 382.54 627.00 385.05 Q 614.45 389.38 599.72 391.00 Q 590.43 392.02 579.75 391.78 Q 548.93 391.06 518.72 381.58"/>
    <path stroke="#826c1b" vector-effect="non-scaling-stroke" d=" M 518.72 381.58 Q 511.43 379.55 503.96 375.75 C 501.80 374.64 500.16 372.93 498.17 371.52 Q 496.12 370.06 494.18 368.05 Q 492.04 365.85 490.24 363.78"/>
    <path stroke="#7e4122" vector-effect="non-scaling-stroke" d=" M 490.24 363.78 L 480.33 342.76"/>
    <path stroke="#2b6e4b" vector-effect="non-scaling-stroke" d=" M 437.35 300.24 Q 444.14 303.59 451.48 301.21 Q 461.06 298.10 465.27 290.02 Q 465.86 288.88 466.03 286.85 Q 466.20 284.83 466.93 283.58"/>
    <path stroke="#7e4122" vector-effect="non-scaling-stroke" d=" M 496.35 342.08 Q 499.85 353.12 500.33 366.85"/>
    <path stroke="#fb7009" vector-effect="non-scaling-stroke" d=" M 518.72 381.58 Q 521.85 384.37 525.78 385.80 Q 531.43 387.85 532.10 388.16 Q 546.79 394.95 561.03 399.54 C 568.91 402.08 576.91 405.33 584.75 407.15 Q 605.58 411.98 626.87 417.17 Q 629.12 417.72 631.24 418.43"/>
    <path stroke="#ff8f01" vector-effect="non-scaling-stroke" d=" M 631.24 418.43 Q 631.29 419.20 632.01 419.55 Q 632.61 419.85 632.02 420.17 C 630.72 420.88 630.05 423.33 629.55 424.63 Q 628.98 426.14 627.97 427.74 Q 625.78 431.21 624.34 434.80 Q 624.12 435.35 624.25 435.94 Q 624.42 436.68 623.92 437.24 Q 623.58 437.62 623.41 438.10 L 621.02 445.01 Q 620.97 445.15 620.86 445.05 Q 620.74 444.93 620.62 444.98 Q 620.12 445.15 620.15 445.69 Q 620.26 447.35 619.51 448.81 Q 619.20 449.40 619.21 450.06 Q 619.24 452.11 617.66 453.45 Q 617.62 453.49 617.65 453.54 Q 617.72 453.65 617.78 453.76 Q 617.86 453.90 617.83 454.05 Q 617.04 457.03 616.20 459.83 Q 615.48 462.21 614.99 464.79 Q 614.50 467.41 613.36 469.69 Q 612.55 471.30 611.81 472.90 Q 611.06 474.49 609.91 476.15 Q 608.67 477.93 608.34 480.06"/>
    <path stroke="#9f5413" vector-effect="non-scaling-stroke" d=" M 608.34 480.06 Q 600.11 471.16 589.61 467.12 C 575.79 461.80 557.27 463.57 546.82 475.39 Q 546.36 475.91 546.24 476.60 Q 545.86 478.74 545.28 480.76 C 544.70 482.81 547.56 484.25 549.09 484.46 C 550.88 484.71 553.92 482.16 555.44 481.16 Q 561.92 476.89 570.23 476.40 Q 586.66 475.43 597.88 485.40 Q 599.89 487.19 602.00 489.84 C 604.44 492.89 606.85 496.33 611.09 494.41"/>
    <path stroke="#ff8f01" vector-effect="non-scaling-stroke" d=" M 611.09 494.41 Q 608.32 501.98 602.96 508.63"/>
    <path stroke="#9f5413" vector-effect="non-scaling-stroke" d=" M 602.96 508.63 Q 599.09 501.16 597.11 498.89 Q 587.25 487.56 573.10 488.02 C 558.44 488.50 548.89 499.36 544.05 512.09"/>
    <path stroke="#ff8f01" vector-effect="non-scaling-stroke" d=" M 544.05 512.09 Q 544.21 509.62 542.76 508.82 Q 542.24 508.53 541.64 508.63 Q 541.25 508.69 540.93 508.43 Q 540.55 508.12 540.08 508.21 Q 538.56 508.49 537.02 507.96 Q 536.54 507.80 536.06 507.95 Q 534.51 508.43 532.90 507.70 Q 532.30 507.42 531.74 507.76 Q 531.45 507.93 531.18 507.73 C 530.02 506.89 529.19 507.34 527.90 507.22 Q 524.74 506.94 521.47 508.23 A 2.06 2.05 -51.3 0 1 520.42 508.35 Q 516.61 507.77 514.68 508.27 Q 511.95 508.98 509.23 509.19 Q 506.23 509.42 503.42 510.04 Q 498.76 511.05 494.05 511.40 Q 491.45 511.59 489.00 512.23 Q 486.60 512.85 483.88 512.62 Q 483.36 512.58 482.87 512.79 Q 479.53 514.19 475.97 513.70 Q 475.57 513.64 475.20 513.82 Q 471.88 515.38 467.95 515.27 A 1.49 1.47 2.0 0 0 466.43 516.67 Q 466.40 517.35 465.22 517.81"/>
    <path stroke="#9f5413" vector-effect="non-scaling-stroke" d=" M 465.22 517.81 Q 462.47 504.78 455.19 496.55 C 447.46 487.79 433.32 485.58 423.18 490.31 C 409.05 496.88 401.94 513.28 401.99 528.24"/>
    <path stroke="#ff8f01" vector-effect="non-scaling-stroke" d=" M 401.99 528.24 Q 401.37 528.53 401.38 528.91 Q 401.40 529.31 401.01 529.29 Q 400.40 529.26 400.06 528.74 Q 399.79 528.32 399.31 528.16 Q 398.30 527.82 397.50 526.90 C 396.89 526.18 396.01 525.85 395.31 525.19 Q 395.11 525.00 394.98 525.24 L 394.84 525.51 Q 394.48 526.18 394.15 525.50 Q 394.01 525.21 394.22 524.97 Q 394.39 524.76 394.19 524.58 Q 392.73 523.30 391.26 523.85 Q 390.83 524.01 390.41 523.81 Q 389.36 523.31 388.14 523.22 A 1.20 1.19 70.3 0 1 387.39 522.86 Q 387.26 522.73 387.11 522.61 Q 386.74 522.33 386.27 522.24 Q 384.29 521.87 382.51 521.38 A 0.89 0.86 35.7 0 0 381.84 521.48 Q 381.46 521.72 381.04 521.57 Q 379.00 520.84 377.00 520.41 Q 374.77 519.93 372.98 519.02 Q 370.82 517.94 368.69 516.71 Q 368.51 516.61 368.31 516.62 Q 368.16 516.62 368.01 516.62 Q 367.75 516.62 367.52 516.50 Q 364.10 514.67 360.68 513.03 C 359.08 512.26 357.87 510.99 356.23 510.27 Q 355.25 509.84 354.42 509.04 Q 353.26 507.92 352.60 507.63 Q 350.16 506.55 347.75 505.29 Q 347.65 505.23 345.47 503.70 Q 343.39 502.23 340.99 502.81 Q 340.25 502.98 340.43 502.25 Q 340.50 501.98 340.63 501.73 A 0.36 0.35 -51.2 0 0 340.59 501.34 Q 340.50 501.22 340.36 501.15 Q 340.03 500.98 339.95 501.35 Q 339.49 503.58 338.46 504.13"/>
    <path stroke="#ffc96f" vector-effect="non-scaling-stroke" d=" M 338.46 504.13 Q 350.81 465.81 377.85 436.60 Q 383.39 430.61 389.55 425.58 A 0.76 0.76 0.0 0 1 390.72 425.84 C 392.18 428.87 393.33 431.77 395.97 434.12 Q 400.73 438.35 406.49 438.73 Q 421.83 439.75 430.26 429.60 C 436.72 421.82 438.81 411.01 431.52 403.22 C 429.00 400.52 425.62 399.37 422.40 397.84 A 1.14 1.13 -55.1 0 1 422.08 396.02 C 424.94 393.10 428.45 390.66 432.09 388.88 Q 439.33 385.34 446.48 381.89 Q 454.86 377.85 467.54 374.31 Q 470.93 373.36 474.46 372.71 Q 476.81 372.28 474.43 372.05 Q 470.67 371.69 466.98 372.03 Q 456.77 373.00 441.05 376.49 Q 395.88 386.54 363.56 419.55 Q 349.52 433.90 336.51 453.26"/>
    <path stroke="#ff8f01" vector-effect="non-scaling-stroke" d=" M 336.51 453.26 Q 337.11 451.76 336.36 450.79 A 1.50 1.42 -65.9 0 1 336.05 449.91 Q 336.01 447.93 335.62 446.03 Q 334.58 440.96 333.20 434.90 Q 332.32 431.00 330.37 427.63 Q 328.21 423.88 326.40 420.46 Q 326.26 420.20 326.19 420.49 Q 326.18 420.54 326.18 420.58 Q 326.21 420.96 325.88 420.76 Q 325.60 420.59 325.18 420.46"/>
    <path stroke="#fb7009" vector-effect="non-scaling-stroke" d=" M 490.24 363.78 Q 484.98 359.87 479.80 356.30 Q 476.31 353.89 469.77 350.49 Q 464.75 347.88 459.70 344.66"/>
    <path stroke="#fb6408" vector-effect="non-scaling-stroke" d=" M 570.49 768.56 Q 561.12 771.52 555.24 772.70 Q 548.76 774.00 541.59 774.98 Q 533.35 776.10 527.86 776.67 Q 497.78 779.81 464.51 774.75 Q 448.64 772.33 436.13 768.46"/>
    <path stroke="#fb5d08" vector-effect="non-scaling-stroke" d=" M 285.63 621.76 L 285.92 619.83 Q 286.02 619.18 286.33 619.76 C 287.10 621.22 287.59 622.65 288.70 623.94 Q 293.86 629.94 299.28 636.03 Q 301.65 638.70 308.41 643.91 C 316.17 649.90 324.12 657.60 330.84 662.40 Q 342.74 670.89 354.93 680.14 C 359.83 683.86 365.16 686.92 370.09 690.49 Q 372.10 691.95 374.28 693.07 C 378.00 694.98 381.43 697.43 384.99 699.36 Q 410.31 713.09 437.89 720.72 Q 447.21 723.30 457.02 724.81 Q 471.81 727.09 483.25 727.66 Q 492.52 728.11 503.93 727.97 C 510.71 727.88 517.08 726.88 523.65 726.31 Q 530.91 725.69 538.29 724.26 C 552.65 721.49 566.41 717.94 580.22 712.13 Q 593.92 706.36 599.25 703.65 Q 608.45 698.97 619.87 690.24 Q 631.67 681.21 638.79 674.45 Q 647.81 665.88 659.11 652.08 Q 665.87 643.83 670.43 636.05 Q 676.77 625.24 680.84 615.90 Q 686.55 602.80 690.93 586.36 Q 693.56 576.46 694.76 565.25 Q 696.14 552.41 695.58 538.51 Q 695.47 535.72 694.89 526.50 Q 693.67 507.08 686.10 485.51"/>
    <path stroke="#fb6408" vector-effect="non-scaling-stroke" d=" M 686.10 485.51 Q 679.66 469.96 677.06 464.93 Q 669.70 450.70 659.53 438.40 C 655.61 433.66 650.46 428.85 645.83 425.43 Q 639.82 420.98 631.24 418.43"/>
    <path stroke="#ff7c00" vector-effect="non-scaling-stroke" d=" M 686.10 485.51 Q 685.19 486.69 686.13 487.49 Q 686.60 487.89 686.02 488.00 Q 685.95 488.01 685.89 488.05 Q 685.23 488.45 685.07 487.70 Q 684.99 487.30 684.70 487.00 A 0.45 0.45 0.0 0 0 684.01 487.05 Q 682.63 488.94 680.54 488.61 Q 679.98 488.52 679.56 488.89 Q 678.90 489.46 678.00 489.53 Q 677.39 489.59 677.31 490.19 Q 677.26 490.50 677.10 490.79 Q 676.75 491.43 676.22 490.91 Q 675.84 490.54 675.66 489.98 A 0.43 0.41 -19.3 0 0 675.10 489.72 Q 672.27 490.87 670.65 493.19 Q 670.36 493.60 670.42 494.10 Q 670.49 494.66 670.01 494.97 Q 667.35 496.72 664.81 499.21 Q 664.56 499.46 664.52 499.81 Q 664.50 500.01 664.42 500.18 A 1.00 0.96 -85.6 0 1 663.87 500.67 Q 662.20 501.27 661.89 502.98 Q 661.79 503.55 661.29 503.82 L 661.04 503.95 Q 660.55 504.22 660.45 504.77 Q 660.13 506.51 658.68 507.27 Q 658.35 507.44 658.23 507.80 Q 657.97 508.59 657.34 509.11 Q 656.73 509.61 656.24 510.27 Q 654.44 512.71 652.67 515.14 A 2.04 1.99 -25.3 0 0 652.31 516.11 Q 652.22 517.18 651.18 517.30 Q 650.43 517.39 649.90 518.02 Q 649.41 518.60 649.91 519.19 A 0.52 0.51 -33.9 0 1 649.75 519.99 Q 645.46 522.09 644.26 526.69 Q 644.08 527.37 643.47 527.70 Q 641.84 528.60 640.84 530.10 Q 639.57 532.01 637.30 532.48 Q 637.00 532.54 637.22 532.76 Q 637.27 532.80 637.33 532.82 Q 637.77 532.89 637.59 533.32 Q 637.21 534.21 636.85 535.15 Q 636.66 535.63 636.15 535.65 Q 635.12 535.71 633.98 536.53 Q 633.61 536.80 633.53 537.25 Q 633.34 538.38 634.04 539.02 Q 634.39 539.34 634.07 539.70 Q 633.93 539.86 633.75 539.94 Q 633.08 540.22 633.40 540.87 Q 633.73 541.57 633.44 542.26 Q 633.27 542.66 633.63 542.89 Q 634.56 543.47 634.81 544.43 Q 634.94 544.94 634.59 545.34 Q 633.72 546.35 634.66 547.13 A 0.49 0.48 36.4 0 1 634.76 547.78 Q 634.46 548.22 634.45 548.77 Q 634.44 549.38 634.78 549.93 Q 636.72 553.04 638.50 556.19 Q 639.34 557.68 639.81 559.40 Q 640.26 561.03 640.96 562.67 Q 642.01 565.11 641.54 567.98 Q 641.30 569.39 641.50 570.54 Q 641.62 571.29 641.21 571.88 Q 640.75 572.53 641.45 572.89 Q 642.80 573.60 642.29 574.56"/>
    <path stroke="#fb6408" vector-effect="non-scaling-stroke" d=" M 642.29 574.56 Q 625.59 569.68 609.37 575.61 Q 599.65 579.16 593.32 587.24 Q 588.78 593.03 588.90 599.93"/>
    <path stroke="#ff7c00" vector-effect="non-scaling-stroke" d=" M 588.90 599.93 Q 588.91 600.68 588.72 601.16 Q 588.49 601.77 588.14 601.22 Q 588.05 601.07 587.88 601.03 Q 587.48 600.96 587.12 601.11 Q 585.66 601.71 584.20 602.42 Q 584.03 602.50 583.96 602.69 Q 583.92 602.83 584.14 602.93 Q 584.44 603.06 584.23 603.30 Q 583.29 604.44 583.48 605.99 Q 583.57 606.80 583.24 606.06 Q 583.18 605.93 583.20 605.78 Q 583.26 605.34 583.02 605.72 Q 582.94 605.86 582.85 605.98 Q 582.69 606.19 582.60 605.94 Q 582.30 605.06 582.65 604.29 Q 582.81 603.94 582.68 603.58 Q 582.50 603.06 582.01 602.80 Q 581.51 602.54 580.99 602.76 Q 578.75 603.68 576.69 604.22 Q 575.94 604.41 576.30 605.09 Q 576.77 606.01 576.29 607.03 Q 576.00 607.66 576.00 606.97 L 576.00 604.52 Q 576.00 604.09 575.58 604.21 Q 566.71 606.79 558.25 610.36 Q 556.09 611.27 553.62 611.85 Q 550.75 612.52 548.97 613.22 Q 546.49 614.21 544.00 615.22 Q 543.54 615.41 543.05 615.31 Q 541.01 614.92 540.41 616.65 A 0.50 0.49 18.8 0 1 539.79 616.95 Q 538.60 616.55 537.65 616.91 Q 537.26 617.05 537.07 616.68 Q 536.98 616.52 536.99 616.33 Q 537.02 615.97 536.66 615.98 Q 536.51 615.98 536.37 616.03 A 0.46 0.46 0.0 0 0 536.17 616.73 Q 536.30 616.90 536.30 617.10 Q 536.31 617.20 536.40 617.19 Q 536.46 617.18 536.49 617.14 Q 536.71 616.92 536.74 617.22 Q 536.75 617.27 536.74 617.32 Q 536.72 617.46 536.58 617.43 Q 535.39 617.16 535.20 618.57 Q 535.15 618.93 534.93 618.65 Q 534.83 618.51 534.74 618.37 Q 534.34 617.68 535.12 617.56 Q 535.54 617.50 535.55 616.98 Q 535.57 616.33 534.92 616.35 Q 534.22 616.37 534.04 617.05 Q 533.91 617.54 533.42 617.44 Q 532.79 617.31 532.28 616.62"/>
    <path stroke="#9f4812" vector-effect="non-scaling-stroke" d=" M 532.28 616.62 Q 541.86 611.44 549.39 603.51 C 553.17 599.52 558.94 594.13 557.38 587.93 Q 556.97 586.30 555.21 585.19 C 547.91 580.57 546.34 589.11 542.88 592.80 C 531.45 604.98 517.08 612.36 500.58 611.15 Q 479.76 609.61 466.22 594.01 C 463.75 591.16 461.33 587.02 458.43 585.04 Q 454.98 582.69 451.99 585.77 C 448.12 589.76 450.76 595.40 453.94 598.99 C 458.23 603.84 463.20 608.98 468.40 612.60 Q 482.61 622.46 500.49 623.38"/>
    <path stroke="#ff7c00" vector-effect="non-scaling-stroke" d=" M 500.49 623.38 L 500.81 624.96 A 1.39 1.38 -15.4 0 1 499.90 626.54 Q 491.06 629.54 482.75 628.48 Q 481.88 628.36 482.59 628.88 Q 483.07 629.23 483.63 629.23 Q 483.97 629.23 484.02 629.56 Q 484.07 629.83 483.84 630.05 A 0.44 0.43 28.4 0 1 483.49 630.15 Q 482.95 630.07 482.86 630.58 A 0.38 0.38 0.0 0 1 482.24 630.81 Q 481.56 630.23 480.76 630.39 Q 479.28 630.67 477.84 630.31 Q 475.94 629.83 475.04 629.86 C 473.64 629.91 472.43 629.97 471.06 629.65 Q 463.79 627.98 456.93 626.02 A 1.05 1.01 80.0 0 1 456.33 625.58 Q 456.06 625.17 455.61 625.05 Q 453.03 624.34 450.62 622.96 Q 447.40 621.11 444.37 619.87 Q 441.27 618.60 438.29 617.14 Q 434.90 615.49 431.73 614.90 Q 428.62 614.32 425.94 613.60 Q 423.46 612.93 421.06 613.08 Q 418.27 613.26 415.67 613.19 Q 414.77 613.16 413.86 613.42 Q 413.38 613.56 412.93 613.34 Q 411.77 612.79 409.24 612.83"/>
    <path stroke="#fb6408" vector-effect="non-scaling-stroke" d=" M 409.24 612.83 C 417.23 608.14 421.47 599.42 416.75 591.28 Q 409.25 578.32 394.11 574.25 Q 382.55 571.13 371.03 573.11 C 361.01 574.83 349.10 581.91 347.88 593.11 C 347.21 599.28 351.32 604.79 356.10 608.28"/>
    <path stroke="#ff7c00" vector-effect="non-scaling-stroke" d=" M 356.10 608.28 Q 357.70 610.17 360.23 611.26 A 1.14 1.13 84.0 0 1 360.73 611.67 Q 361.17 612.31 361.94 612.11 Q 362.08 612.07 362.20 612.17 Q 362.30 612.27 362.40 612.37 Q 362.55 612.55 362.32 612.53 Q 360.88 612.41 359.48 612.62 Q 358.89 612.71 359.34 612.31 Q 359.43 612.23 359.60 612.29 Q 359.77 612.34 359.83 612.18 Q 359.99 611.76 359.70 611.45 A 0.57 0.57 0.0 0 0 358.79 611.53 Q 358.57 611.88 358.20 611.76 Q 357.41 611.51 357.79 612.25 Q 357.91 612.49 357.94 612.76 A 0.43 0.43 0.0 0 1 357.36 613.22 Q 356.46 612.88 355.51 612.78 Q 354.51 612.67 353.61 612.17 Q 350.65 610.56 347.65 609.14 Q 346.62 608.65 346.77 609.78 L 346.82 610.18 Q 346.96 611.24 346.04 610.70 L 344.32 609.71 Q 344.08 609.57 343.99 609.32 L 343.41 607.75 Q 343.22 607.24 342.70 607.38 Q 341.98 607.59 341.76 606.81 Q 341.58 606.16 341.07 606.60 L 339.96 607.54 Q 339.81 607.66 339.62 607.66 Q 339.48 607.66 339.36 607.63 Q 338.68 607.44 339.59 607.39 Q 339.80 607.38 339.91 607.23 Q 340.16 606.86 339.78 606.62 Q 336.81 604.80 333.85 603.40 Q 332.17 602.60 330.75 601.47 Q 329.25 600.27 327.79 599.22 C 327.00 598.64 326.78 597.80 326.01 597.14 Q 323.30 594.80 320.83 592.09 Q 317.95 588.93 314.57 586.17 Q 313.12 584.98 311.86 583.47 Q 310.55 581.91 308.94 580.55 Q 306.43 578.43 304.28 576.18 Q 302.13 573.93 299.84 572.04 Q 295.95 568.83 292.46 564.63 Q 291.01 562.88 288.93 561.49 Q 288.61 561.28 288.43 560.95 Q 288.01 560.19 287.35 559.52 Q 283.93 556.09 280.64 553.06 Q 280.29 552.74 279.84 552.87 Q 278.87 553.17 278.31 552.24 A 0.05 0.05 0.0 0 0 278.22 552.26 Q 277.88 554.01 277.82 554.06 Q 277.78 554.09 277.73 554.08 L 277.72 554.08 Q 277.59 554.06 277.61 553.93 Q 277.87 551.50 277.81 549.01 Q 277.80 548.72 277.53 548.60 Q 277.47 548.57 277.43 548.62 Q 276.87 549.15 276.91 548.35 Q 276.95 547.52 276.58 547.21"/>
    <path stroke="#9f4812" vector-effect="non-scaling-stroke" d=" M 401.99 528.24 Q 401.42 538.89 405.93 550.27 C 410.74 562.41 419.46 571.08 433.04 572.43 C 449.01 574.02 460.18 559.17 463.99 545.49 Q 467.74 532.01 465.22 517.81"/>
    <path stroke="#9f4812" vector-effect="non-scaling-stroke" d=" M 544.05 512.09 Q 538.49 530.80 545.08 549.21 C 550.32 563.85 565.75 577.80 582.48 571.04 C 593.81 566.46 600.90 556.45 604.33 545.08 Q 609.81 526.90 602.96 508.63"/>
    <path stroke="#9f4812" vector-effect="non-scaling-stroke" d=" M 611.09 494.41 C 616.49 490.28 611.59 483.66 608.34 480.06"/>
    <path stroke="#ffbd6e" vector-effect="non-scaling-stroke" d=" M 338.46 504.13 Q 335.99 512.20 334.48 520.76 Q 333.61 525.69 331.47 530.01 C 328.19 536.66 320.08 537.87 315.38 531.93 C 311.25 526.73 311.67 518.59 312.55 512.38 C 315.52 491.44 324.90 471.09 336.51 453.26"/>
    <path stroke="#fb5d08" vector-effect="non-scaling-stroke" d=" M 356.10 608.28 Q 364.16 613.12 370.55 614.91 Q 383.50 618.55 398.25 616.06 Q 403.34 615.21 409.24 612.83"/>
    <path stroke="#9f4112" vector-effect="non-scaling-stroke" d=" M 500.49 623.38 C 512.22 624.04 521.74 621.90 532.28 616.62"/>
    <path stroke="#fb5d08" vector-effect="non-scaling-stroke" d=" M 588.90 599.93 C 589.55 605.23 592.81 608.99 597.31 611.70 C 604.63 616.12 610.98 617.04 619.38 617.09 Q 635.25 617.17 648.82 609.89 C 650.79 608.83 652.34 607.40 654.10 606.07 C 657.49 603.50 659.17 599.58 659.69 595.44 C 660.59 588.35 655.09 581.48 649.36 577.89 Q 646.04 575.81 642.29 574.56"/>
    <path stroke="#ffbd6e" vector-effect="non-scaling-stroke" d=" M 325.88 389.58 C 326.41 385.30 326.99 380.98 328.00 376.78 Q 331.60 361.92 344.86 355.09 Q 346.60 354.19 348.22 353.83 C 350.03 353.43 352.03 353.06 353.57 351.98 A 1.22 1.22 0.0 0 0 353.41 349.88 Q 350.63 348.53 347.66 347.79 C 337.10 345.17 330.16 336.17 327.94 325.44 Q 326.51 318.55 325.34 312.29 Q 325.01 310.55 324.47 310.29 Q 322.45 309.31 322.05 311.56 Q 321.02 317.27 319.92 323.02 Q 315.80 344.69 294.40 349.47 A 1.07 1.07 0.0 0 0 293.63 350.91 Q 293.89 351.56 294.57 351.85 C 297.16 352.92 299.71 353.47 302.24 354.69 Q 315.54 361.07 319.13 375.26 Q 320.93 382.41 321.84 389.59 Q 322.02 390.97 323.34 391.31 A 2.05 2.05 0.0 0 0 325.88 389.58"/>
    <path stroke="#a8cb9f" vector-effect="non-scaling-stroke" d=" M 586.95 301.94 C 591.89 299.32 596.89 295.37 596.08 289.36 C 595.44 284.56 589.61 281.39 585.07 282.39 Q 572.62 285.11 563.45 292.41 C 559.81 295.31 558.35 299.38 561.15 303.57 C 566.43 311.47 580.11 305.56 586.95 301.94"/>
    <path stroke="#a8cb9f" vector-effect="non-scaling-stroke" d=" M 551.4010 305.1690 A 7.89 6.36 -43.1 0 0 541.2944 305.9162 A 7.89 6.36 -43.1 0 0 539.8790 315.9510 A 7.89 6.36 -43.1 0 0 549.9856 315.2038 A 7.89 6.36 -43.1 0 0 551.4010 305.1690"/>
    <path stroke="#ffc96f" vector-effect="non-scaling-stroke" d=" M 468.1323 395.8567 A 7.33 6.62 -14.0 0 0 459.4185 391.2066 A 7.33 6.62 -14.0 0 0 453.9077 399.4033 A 7.33 6.62 -14.0 0 0 462.6215 404.0534 A 7.33 6.62 -14.0 0 0 468.1323 395.8567"/>
    <path stroke="#ffc96f" vector-effect="non-scaling-stroke" d=" M 379.6201 470.3156 A 9.93 9.47 127.9 0 0 393.1926 468.2973 A 9.93 9.47 127.9 0 0 391.8199 454.6444 A 9.93 9.47 127.9 0 0 378.2474 456.6627 A 9.93 9.47 127.9 0 0 379.6201 470.3156"/>
    <path stroke="#9f5413" vector-effect="non-scaling-stroke" d=" M 440.35 476.40 C 445.26 477.04 450.00 479.61 454.05 482.41 C 456.38 484.01 459.51 484.90 461.73 482.50 C 464.59 479.38 460.47 474.25 457.97 472.29 Q 448.68 465.01 437.65 464.24 Q 420.60 463.04 407.42 473.37 C 403.19 476.67 389.63 488.07 397.11 493.90 C 399.26 495.58 402.08 494.61 403.42 492.50 Q 409.90 482.25 420.54 478.58 Q 430.56 475.12 440.35 476.40"/>
  </g>
  <rect width="1024" height="1024" style="stroke: rgb(0, 0, 0); fill: rgb(255, 248, 219);"/>
  <path fill="#519f63" d="M 893.367 59.487 C 865.208 77.094 837.149 93.556 809.189 108.874 C 793.507 117.466 778.483 124.708 764.116 130.6 C 749.772 136.481 724.113 146.364 687.139 160.25 C 682.562 161.976 677.368 164.229 671.557 167.011 C 670.431 167.539 669.321 168.754 668.564 169.74 C 667.701 170.883 668.394 172.532 669.814 172.716 C 676.634 173.596 683.577 174.324 690.643 174.899 C 694.047 175.169 697.357 175.773 700.573 176.712 C 701.175 176.876 701.373 177.63 700.93 178.069 C 700.912 178.087 700.893 178.105 700.873 178.121 C 699.781 179.036 698.537 179.723 697.14 180.181 C 670.988 188.738 643.164 195.129 613.666 199.355 C 609.171 200 604.881 200.417 600.796 200.605 C 599.564 200.663 599.481 200.388 600.549 199.777 C 619.195 189.037 637.612 178.86 657.032 169.546 C 665.237 165.614 673.072 161.835 680.537 158.208 C 709.365 144.181 741.843 129.386 777.972 113.821 C 799.153 104.701 820.123 94.383 840.652 83.819 C 840.781 83.749 840.893 83.655 840.987 83.538 C 841.139 83.315 841.186 83.109 841.128 82.921 C 840.975 82.475 840.664 82.276 840.194 82.323 C 838.34 82.522 836.567 82.869 834.877 83.362 C 798.114 93.961 762.619 107.154 728.392 122.941 C 694.305 138.658 660.313 155.156 626.414 172.434 C 610.744 180.427 587.462 194.166 556.568 213.651 C 550.499 217.49 538.298 226.017 519.964 239.234 C 516.671 241.593 513.027 243.53 509.628 245.731 C 508.379 246.544 506.718 245.699 506.638 244.211 C 506.636 244.177 506.635 244.144 506.635 244.111 L 506.618 235.096 L 520.914 191.414 C 521.008 191.121 520.938 190.874 520.703 190.674 C 520.527 190.534 520.345 190.481 520.157 190.516 C 528.556 166.694 543.627 143.101 561.128 124.843 C 587.573 97.236 617.575 76.53 654.268 62.392 C 694.481 46.91 736.661 39.31 780.807 39.591 C 801.395 39.72 824.971 41.663 851.533 45.419 C 867.567 47.684 881.512 52.374 893.367 59.487 Z M 659.127 120.811 C 667.825 116.198 676.628 109.243 675.202 98.662 C 674.075 90.211 663.81 84.629 655.817 86.39 C 641.203 89.583 628.515 95.463 617.751 104.032 C 611.342 109.138 608.772 116.304 613.702 123.681 C 622.998 137.59 647.084 127.185 659.127 120.811 Z M 596.537 126.496 C 592.311 121.981 584.344 122.57 578.743 127.812 C 573.141 133.054 572.025 140.964 576.25 145.48 C 580.476 149.995 588.443 149.406 594.045 144.164 C 599.647 138.922 600.762 131.012 596.537 126.496 Z"/>
  <path fill="#043c33" d="M 893.367 59.487 C 896.419 64.804 897.727 69.288 897.293 72.938 C 895.685 86.237 891.013 101.197 883.278 117.818 C 874.639 136.387 865.718 153.143 856.516 168.085 C 851.527 176.196 844.872 184.958 836.55 194.372 C 817.112 216.38 797.903 234.322 771.74 248.336 C 763.629 252.679 755.172 257.093 746.368 261.577 C 743.763 262.34 738.187 264.194 729.642 267.14 C 714.911 272.223 698.901 275.715 681.611 277.616 C 670.706 278.814 658.986 279.271 646.45 278.99 C 610.274 278.145 574.456 272.158 538.996 261.031 C 530.44 258.648 521.777 255.227 513.009 250.766 C 509.206 248.812 506.318 245.801 502.815 243.319 C 500.408 241.605 498.067 239.568 495.79 237.209 C 493.278 234.627 490.965 232.121 488.852 229.691 L 471.404 192.682 C 460.394 171.119 445.575 153.759 426.947 140.601 C 418.801 134.861 410.467 129.409 401.946 124.244 C 399.833 122.965 397.761 120.823 395.731 117.818 C 403.701 121.75 411.993 122.319 420.609 119.526 C 431.854 115.875 439.947 109.308 444.889 99.824 C 445.581 98.486 446.027 96.625 446.227 94.243 C 446.426 91.871 446.954 89.952 447.811 88.485 C 460.371 101.96 470.512 116.603 478.236 132.414 C 487.426 151.253 494.551 170.943 499.61 191.484 C 503.718 204.443 506.054 218.98 506.618 235.096 L 506.635 244.111 C 506.638 245.602 508.254 246.531 509.543 245.783 C 509.572 245.766 509.601 245.749 509.628 245.731 C 513.027 243.53 516.671 241.593 519.964 239.234 C 538.298 226.017 550.499 217.49 556.568 213.651 C 587.462 194.166 610.744 180.427 626.414 172.434 C 660.313 155.156 694.305 138.658 728.392 122.941 C 762.619 107.154 798.114 93.961 834.877 83.362 C 836.567 82.869 838.34 82.522 840.194 82.323 C 840.664 82.276 840.975 82.475 841.128 82.921 C 841.186 83.109 841.139 83.315 840.987 83.538 C 840.893 83.655 840.781 83.749 840.652 83.819 C 820.123 94.383 799.153 104.701 777.972 113.821 C 741.843 129.386 709.365 144.181 680.537 158.208 C 673.072 161.835 665.237 165.614 657.032 169.546 C 637.612 178.86 619.195 189.037 600.549 199.777 C 599.481 200.388 599.564 200.663 600.796 200.605 C 604.881 200.417 609.171 200 613.666 199.355 C 643.164 195.129 670.988 188.738 697.14 180.181 C 698.537 179.723 699.781 179.036 700.873 178.121 C 701.355 177.726 701.23 176.957 700.647 176.736 C 700.623 176.727 700.598 176.719 700.573 176.712 C 697.357 175.773 694.047 175.169 690.643 174.899 C 683.577 174.324 676.634 173.596 669.814 172.716 C 668.394 172.532 667.701 170.883 668.564 169.74 C 669.321 168.754 670.431 167.539 671.557 167.011 C 677.368 164.229 682.562 161.976 687.139 160.25 C 724.113 146.364 749.772 136.481 764.116 130.6 C 778.483 124.708 793.507 117.466 809.189 108.874 C 837.149 93.556 865.208 77.094 893.367 59.487 Z"/>
  <path fill="#519f63" d="M 447.811 88.485 C 446.954 89.952 446.426 91.871 446.227 94.243 C 446.027 96.625 445.581 98.486 444.889 99.824 C 439.947 109.308 431.854 115.875 420.609 119.526 C 411.993 122.319 403.701 121.75 395.731 117.818 C 393.665 116.785 392.397 114.584 391.928 111.215 C 388.934 90.193 414.693 71.6 433.004 76.072 C 439.249 77.598 444.184 81.736 447.811 88.485 Z"/>
  <path fill="#fff7db" d="M 659.127 120.811 C 647.084 127.185 622.998 137.59 613.702 123.681 C 608.772 116.304 611.342 109.138 617.751 104.032 C 628.515 95.463 641.203 89.583 655.817 86.39 C 663.81 84.629 674.075 90.211 675.202 98.662 C 676.628 109.243 667.825 116.198 659.127 120.811 Z"/>
  <path fill="#fff7db" d="M 596.537 126.496 C 600.762 131.012 599.647 138.922 594.045 144.164 C 588.443 149.406 580.476 149.995 576.25 145.48 C 572.025 140.964 573.141 133.054 578.743 127.812 C 584.344 122.57 592.311 121.981 596.537 126.496 Z"/>
  <path fill="#ff8300" d="M 203.201 252.58 C 201.423 259.975 200.402 267.581 199.469 275.116 C 199.197 277.27 197.1 278.698 194.996 278.162 C 193.447 277.763 192.567 276.754 192.355 275.134 C 191.287 266.706 189.697 258.296 187.584 249.903 C 183.37 233.248 173.458 221.175 157.846 213.686 C 153.392 211.538 148.902 210.57 144.342 208.686 C 143.544 208.346 142.992 207.794 142.687 207.031 C 142.258 205.949 142.904 204.74 144.043 204.496 C 169.162 198.885 184.139 183.362 188.975 157.926 C 190.266 151.177 191.516 144.451 192.725 137.749 C 193.195 135.108 194.615 134.362 196.986 135.513 C 197.62 135.818 198.13 136.992 198.518 139.034 C 199.891 146.382 201.417 154.099 203.096 162.187 C 207.004 181.079 219.223 196.925 237.816 201.538 C 241.302 202.406 244.677 203.633 247.94 205.218 C 249.417 205.937 249.572 207.98 248.222 208.915 C 245.51 210.817 241.989 211.468 238.802 212.172 C 236.9 212.595 234.928 213.334 232.886 214.391 C 217.322 222.408 207.427 235.137 203.201 252.58 Z"/>
  <path fill="#f74510" d="M 520.157 190.516 C 520.345 190.481 520.527 190.534 520.703 190.674 C 520.938 190.874 521.008 191.121 520.914 191.414 L 506.618 235.096 C 506.054 218.98 503.718 204.443 499.61 191.484 L 520.157 190.516 Z"/>
  <path fill="#f74510" d="M 471.404 192.682 L 488.852 229.691 C 482.678 225.101 476.551 220.712 470.471 216.521 C 466.375 213.692 460.488 210.282 452.812 206.292 C 446.919 203.228 441.009 199.806 435.082 196.027 C 445.587 193.985 452.659 193.01 456.298 193.104 C 461.38 193.233 466.416 193.092 471.404 192.682 Z"/>
  <path fill="#ff9b02" d="M 435.082 196.027 C 441.009 199.806 446.919 203.228 452.812 206.292 C 460.488 210.282 466.375 213.692 470.471 216.521 C 476.551 220.712 482.678 225.101 488.852 229.691 C 490.965 232.121 493.278 234.627 495.79 237.209 C 498.067 239.568 500.408 241.605 502.815 243.319 C 506.318 245.801 509.206 248.812 513.009 250.766 C 521.777 255.227 530.44 258.648 538.996 261.031 C 542.67 264.306 546.814 266.782 551.427 268.461 C 558.059 270.867 561.768 272.252 562.554 272.616 C 579.797 280.586 596.776 287.265 613.49 292.653 C 627.365 297.125 641.45 302.847 655.254 306.051 C 679.703 311.721 704.423 317.601 729.413 323.693 C 732.054 324.339 734.619 325.078 737.107 325.912 C 737.166 326.815 737.618 327.473 738.463 327.884 C 739.167 328.236 739.173 328.6 738.48 328.975 C 736.192 330.225 735.012 334.539 734.132 336.828 C 733.463 338.6 732.535 340.425 731.35 342.303 C 728.779 346.377 726.649 350.52 724.959 354.734 C 724.7 355.379 724.647 356.048 724.8 356.741 C 725 357.61 724.806 358.373 724.219 359.03 C 723.82 359.476 723.521 359.981 723.321 360.544 L 719.113 372.71 C 719.054 372.875 718.961 372.898 718.831 372.781 C 718.691 372.64 718.55 372.599 718.409 372.657 C 717.822 372.857 717.546 373.274 717.581 373.908 C 717.71 375.856 717.335 377.687 716.454 379.401 C 716.091 380.093 715.915 380.827 715.926 381.602 C 715.961 384.008 715.052 385.997 713.197 387.57 C 713.15 387.617 713.144 387.67 713.18 387.729 C 713.262 387.858 713.338 387.987 713.409 388.116 C 713.502 388.28 713.532 388.451 713.497 388.627 C 712.569 392.125 711.613 395.517 710.627 398.803 C 709.782 401.597 709.071 404.508 708.496 407.536 C 707.921 410.612 706.964 413.487 705.626 416.164 C 704.676 418.053 703.766 419.937 702.897 421.815 C 702.017 423.682 700.902 425.589 699.552 427.538 C 698.097 429.627 697.175 431.922 696.788 434.422 C 687.128 423.975 676.135 416.381 663.81 411.639 C 639.478 402.272 606.87 405.388 588.471 426.199 C 587.931 426.81 587.591 427.52 587.45 428.33 C 587.004 430.842 586.441 433.283 585.76 435.654 C 584.739 439.264 589.774 441.799 592.468 442.169 C 595.62 442.609 600.972 438.119 603.648 436.359 C 611.254 431.347 619.934 428.553 629.689 427.978 C 648.974 426.839 665.201 432.121 678.371 443.824 C 680.73 445.925 683.148 448.531 685.625 451.641 C 689.921 457.011 694.164 463.068 701.63 459.687 C 698.378 468.573 693.607 476.919 687.315 484.724 C 682.773 475.956 679.34 470.24 677.015 467.575 C 665.442 454.276 651.351 447.897 634.742 448.437 C 608.93 449.282 592.116 468.403 583.594 490.816 C 583.782 487.917 583.025 485.998 581.323 485.059 C 580.713 484.718 580.055 484.607 579.351 484.724 C 578.893 484.795 578.477 484.677 578.101 484.372 C 577.655 484.008 577.156 483.879 576.604 483.985 C 574.82 484.313 573.024 484.167 571.217 483.545 C 570.653 483.357 570.09 483.351 569.526 483.527 C 567.707 484.09 565.853 483.944 563.963 483.087 C 563.258 482.758 562.578 482.793 561.92 483.192 C 561.58 483.392 561.251 483.374 560.934 483.14 C 558.892 481.661 557.431 482.453 555.159 482.242 C 551.45 481.913 547.677 482.506 543.838 484.02 C 543.25 484.25 542.613 484.323 541.99 484.231 C 537.517 483.55 534.149 483.503 531.883 484.09 C 528.679 484.924 525.48 485.464 522.288 485.71 C 518.766 485.98 515.356 486.479 512.058 487.207 C 506.588 488.392 501.089 489.19 495.561 489.601 C 492.509 489.824 489.545 490.311 486.669 491.063 C 483.852 491.79 480.847 492.019 477.655 491.749 C 477.044 491.702 476.452 491.802 475.876 492.049 C 471.956 493.692 467.906 494.226 463.728 493.651 C 463.258 493.58 462.806 493.651 462.372 493.862 C 458.475 495.693 454.22 496.544 449.607 496.415 C 448.184 496.384 446.997 497.478 446.931 498.88 C 446.896 499.678 446.186 500.347 444.801 500.887 C 441.573 485.593 435.686 473.116 427.141 463.455 C 413.531 448.032 388.635 444.141 370.782 452.469 C 345.904 464.036 333.385 492.911 333.473 519.251 C 332.746 519.591 332.388 519.985 332.399 520.431 C 332.423 520.9 332.206 521.123 331.748 521.1 C 331.032 521.064 330.474 520.742 330.075 520.131 C 329.758 519.638 329.318 519.298 328.755 519.11 C 327.569 518.711 326.507 517.972 325.568 516.892 C 324.494 515.624 322.944 515.043 321.712 513.881 C 321.477 513.658 321.284 513.687 321.131 513.969 L 320.884 514.444 C 320.462 515.231 320.057 515.225 319.67 514.427 C 319.505 514.086 319.546 513.775 319.793 513.494 C 319.992 513.247 319.975 513.018 319.74 512.807 C 318.026 511.304 316.307 510.876 314.581 511.522 C 314.077 511.709 313.578 511.686 313.085 511.451 C 311.852 510.864 310.52 510.518 309.088 510.412 C 308.587 510.367 308.119 510.142 307.767 509.779 C 307.615 509.626 307.451 509.479 307.274 509.338 C 306.84 509.01 306.347 508.793 305.795 508.687 C 303.471 508.253 301.265 507.748 299.175 507.173 C 298.769 507.072 298.344 507.135 297.996 507.349 C 297.55 507.631 297.08 507.683 296.587 507.507 C 294.193 506.65 291.822 505.97 289.474 505.465 C 286.857 504.902 284.497 504.086 282.396 503.018 C 279.861 501.75 277.343 500.394 274.843 498.95 C 274.632 498.833 274.409 498.78 274.174 498.792 C 273.998 498.792 273.822 498.792 273.646 498.792 C 273.34 498.792 273.053 498.722 272.783 498.581 C 268.769 496.433 264.754 494.396 260.74 492.471 C 257.923 491.115 255.792 488.879 252.905 487.612 C 251.755 487.107 250.692 486.385 249.718 485.446 C 248.357 484.131 247.288 483.304 246.514 482.964 C 243.65 481.696 240.803 480.323 237.974 478.844 C 237.857 478.773 236.519 477.84 233.96 476.044 C 231.519 474.319 228.889 473.796 226.072 474.477 C 225.204 474.677 224.875 474.348 225.086 473.491 C 225.168 473.174 225.286 472.869 225.438 472.576 C 225.555 472.349 225.527 472.079 225.368 471.889 C 225.262 471.748 225.127 471.637 224.963 471.554 C 224.576 471.355 224.335 471.472 224.241 471.907 C 223.701 474.524 222.827 476.156 221.618 476.801 C 236.114 431.822 259.232 392.189 290.971 357.903 C 297.473 350.872 304.34 344.405 311.57 338.5 C 312.242 337.946 313.257 338.171 313.63 338.958 C 316.201 344.293 318.226 349.399 322.874 353.537 C 328.461 358.502 334.635 361.207 341.396 361.653 C 359.402 362.851 373.352 357.492 383.247 345.578 C 394.621 331.88 398.301 312.847 385.466 299.132 C 381.029 294.378 375.078 292.353 369.409 289.659 C 368.172 289.078 367.885 287.443 368.845 286.455 C 373.881 281.314 380.061 277.018 386.469 273.884 C 394.968 269.729 403.413 265.626 411.806 261.577 C 421.642 256.835 434.002 252.386 448.885 248.231 C 452.864 247.116 456.926 246.177 461.069 245.414 C 463.827 244.909 463.81 244.522 461.016 244.252 C 456.603 243.829 452.231 243.817 447.899 244.216 C 435.915 245.355 420.697 247.973 402.245 252.069 C 349.225 263.866 303.747 289.137 265.811 327.884 C 249.331 344.727 233.455 364.511 218.184 387.236 C 218.889 385.475 218.801 384.026 217.92 382.887 C 217.577 382.453 217.386 381.909 217.375 381.338 C 217.328 379.013 217.075 376.736 216.617 374.506 C 215.397 368.555 213.976 362.023 212.357 354.91 C 211.324 350.332 209.663 346.065 207.374 342.11 C 204.839 337.708 202.509 333.5 200.384 329.486 C 200.22 329.181 200.097 329.198 200.014 329.539 C 200.003 329.597 199.997 329.65 199.997 329.697 C 200.032 330.143 199.856 330.249 199.469 330.014 C 199.14 329.814 198.729 329.638 198.236 329.486 C 217.967 305.517 240.005 284.049 264.349 265.08 C 270.23 260.503 276.973 256.7 283.171 252.386 C 316.694 228.987 356.961 212.683 399.551 202.453 C 414.681 198.826 426.525 196.684 435.082 196.027 Z M 449.928 286.167 C 448.371 279.921 441.502 276.256 434.586 277.98 C 427.67 279.705 423.326 286.166 424.883 292.412 C 426.441 298.658 433.309 302.324 440.225 300.599 C 447.141 298.875 451.485 292.414 449.928 286.167 Z M 294.087 417.265 C 301.354 422.922 312.052 421.331 317.984 413.712 C 323.915 406.092 322.833 395.33 315.567 389.673 C 308.301 384.017 297.602 385.608 291.67 393.227 C 285.739 400.846 286.821 411.608 294.087 417.265 Z M 401.013 427.978 C 409.657 429.105 418.003 433.63 425.134 438.559 C 429.236 441.376 434.747 442.943 438.656 438.718 C 443.691 433.225 436.437 424.192 432.036 420.741 C 421.131 412.196 409.206 407.472 396.259 406.568 C 376.246 405.159 358.504 410.518 343.034 422.643 C 335.586 428.453 311.711 448.525 324.881 458.79 C 328.667 461.747 333.632 460.04 335.991 456.325 C 343.597 444.293 353.645 436.124 366.134 431.816 C 377.895 427.755 389.521 426.475 401.013 427.978 Z"/>
  <path fill="#fff7db" d="M 221.618 476.801 C 218.719 486.274 216.383 496.034 214.61 506.081 C 213.589 511.868 211.823 517.297 209.311 522.367 C 203.536 534.076 189.257 536.206 180.982 525.748 C 173.71 516.592 174.449 502.26 175.999 491.327 C 181.228 454.458 197.743 418.629 218.184 387.236 C 233.455 364.511 249.331 344.727 265.811 327.884 C 303.747 289.137 349.225 263.866 402.245 252.069 C 420.697 247.973 435.915 245.355 447.899 244.216 C 452.231 243.817 456.603 243.829 461.016 244.252 C 463.81 244.522 463.827 244.909 461.069 245.414 C 456.926 246.177 452.864 247.116 448.885 248.231 C 434.002 252.386 421.642 256.835 411.806 261.577 C 403.413 265.626 394.968 269.729 386.469 273.884 C 380.061 277.018 373.881 281.314 368.845 286.455 C 367.885 287.443 368.172 289.078 369.409 289.659 C 375.078 292.353 381.029 294.378 385.466 299.132 C 398.301 312.847 394.621 331.88 383.247 345.578 C 373.352 357.492 359.402 362.851 341.396 361.653 C 334.635 361.207 328.461 358.502 322.874 353.537 C 318.226 349.399 316.201 344.293 313.63 338.958 C 313.257 338.171 312.242 337.946 311.57 338.5 C 304.34 344.405 297.473 350.872 290.971 357.903 C 259.232 392.189 236.114 431.822 221.618 476.801 Z"/>
  <path fill="#f74510" d="M 746.368 261.577 C 748.974 262.938 751.374 264.317 753.569 265.714 C 772.268 277.523 789.381 291.467 804.911 307.548 C 815.827 318.851 825.428 329.709 833.715 340.12 C 845.171 354.534 857.179 373.573 869.739 397.236 C 880.936 418.341 889.857 440.502 896.501 463.719 C 905.603 495.5 910.868 522.631 911.731 553.584 C 912.388 577.33 911.842 597.096 910.093 612.883 C 908.321 628.788 905.292 645.667 901.008 663.52 C 894.089 692.272 883.507 721.711 869.017 747.962 C 864.633 755.92 861.111 764.495 856.393 771.978 C 821.238 827.697 777.315 871.209 724.624 902.514 C 697.604 918.56 666.111 931.847 630.146 942.376 C 619.148 945.85 610.198 948.28 603.296 949.665 C 595.69 951.191 587.679 952.529 579.263 953.679 C 569.591 954.994 561.533 955.986 555.089 956.655 C 519.782 960.34 482.602 959.213 443.55 953.274 C 424.923 950.434 408.267 946.742 393.583 942.199 C 382.596 939.465 372.824 936.436 364.267 933.114 C 347.201 926.471 329.623 918.442 311.535 909.028 C 303.507 904.85 295.607 900.119 287.837 894.837 C 269.367 882.249 250.493 868.639 235.686 853.919 C 230.497 848.766 225.615 843.889 221.037 839.288 C 211.083 829.264 200.889 817.385 190.454 803.652 C 178.505 787.912 166.79 769.472 155.311 748.332 C 145.909 731.042 137.006 709.568 128.602 683.909 L 129.112 680.511 C 129.23 679.748 129.47 679.707 129.834 680.388 C 131.19 682.958 132.052 685.476 134.007 687.747 C 140.063 694.79 146.273 701.885 152.635 709.034 C 155.417 712.168 160.775 716.792 168.71 722.908 C 182.372 733.454 196.37 747.011 208.201 755.463 C 222.169 765.428 236.308 775.839 250.616 786.697 C 259.243 793.247 268.628 798.634 277.308 804.92 C 279.667 806.634 282.126 808.148 284.685 809.462 C 291.235 812.825 297.274 817.139 303.542 820.537 C 333.262 836.653 364.308 849.189 396.681 858.145 C 407.621 861.173 418.848 863.574 430.363 865.346 C 447.723 868.022 463.117 869.695 476.545 870.364 C 487.426 870.892 499.563 871.074 512.956 870.91 C 524.893 870.751 536.109 868.991 547.677 867.987 C 556.198 867.259 564.79 866.056 573.453 864.378 C 598.736 859.501 622.963 853.25 647.278 843.021 C 663.359 836.248 674.527 831.271 680.783 828.09 C 691.582 822.597 703.684 814.727 717.088 804.48 C 730.939 793.88 742.043 784.613 750.4 776.679 C 760.988 766.619 772.913 753.491 786.177 737.293 C 794.112 727.609 800.755 718.201 806.108 709.069 C 813.55 696.38 819.659 684.555 824.436 673.591 C 831.139 658.215 837.06 640.878 842.202 621.581 C 845.289 609.961 847.536 597.572 848.945 584.413 C 850.565 569.342 851.046 553.649 850.389 537.333 C 850.26 534.058 849.855 527.01 849.174 516.187 C 847.742 493.393 842.583 469.336 833.698 444.017 C 826.138 425.765 820.833 413.687 817.781 407.783 C 809.142 391.08 798.854 375.51 786.917 361.072 C 780.015 352.727 770.947 344.258 762.795 338.236 C 755.741 333.013 747.178 328.905 737.107 325.912 C 734.619 325.078 732.054 324.339 729.413 323.693 C 704.423 317.601 679.703 311.721 655.254 306.051 C 641.45 302.847 627.365 297.125 613.49 292.653 C 596.776 287.265 579.797 280.586 562.554 272.616 C 561.768 272.252 558.059 270.867 551.427 268.461 C 546.814 266.782 542.67 264.306 538.996 261.031 C 574.456 272.158 610.274 278.145 646.45 278.99 C 658.986 279.271 670.706 278.814 681.611 277.616 C 698.901 275.715 714.911 272.223 729.642 267.14 C 738.187 264.194 743.763 262.34 746.368 261.577 Z"/>
  <path fill="#fff7db" d="M 449.928 286.167 C 451.485 292.414 447.141 298.875 440.225 300.599 C 433.309 302.324 426.441 298.658 424.883 292.412 C 423.326 286.166 427.67 279.705 434.586 277.98 C 441.502 276.256 448.371 279.921 449.928 286.167 Z"/>
  <path fill="#ff8300" d="M 737.107 325.912 C 747.178 328.905 755.741 333.013 762.795 338.236 C 770.947 344.258 780.015 352.727 786.917 361.072 C 798.854 375.51 809.142 391.08 817.781 407.783 C 820.833 413.687 826.138 425.765 833.698 444.017 C 832.629 445.403 832.647 446.565 833.75 447.504 C 834.302 447.973 834.238 448.272 833.557 448.402 C 833.475 448.413 833.398 448.443 833.328 448.49 C 832.553 448.959 832.072 448.754 831.884 447.873 C 831.79 447.404 831.573 446.993 831.233 446.641 C 830.889 446.284 830.306 446.326 830.018 446.729 C 828.398 448.947 826.361 449.863 823.908 449.476 C 823.251 449.37 822.676 449.534 822.183 449.969 C 821.408 450.638 820.493 451.013 819.436 451.095 C 818.72 451.166 818.315 451.553 818.221 452.257 C 818.163 452.621 818.039 452.973 817.852 453.314 C 817.441 454.065 816.924 454.135 816.302 453.525 C 815.856 453.091 815.527 452.545 815.316 451.888 C 815.198 451.483 814.743 451.272 814.33 451.43 C 811.008 452.78 808.397 454.816 806.495 457.539 C 806.155 458.021 806.02 458.555 806.09 459.142 C 806.172 459.799 805.932 460.31 805.368 460.673 C 802.246 462.728 799.194 465.216 796.213 468.139 C 795.919 468.432 795.749 468.784 795.702 469.195 C 795.679 469.43 795.62 469.647 795.526 469.847 C 795.323 470.254 794.975 470.563 794.558 470.709 C 792.598 471.414 791.436 472.769 791.072 474.776 C 790.954 475.445 790.602 475.938 790.015 476.255 L 789.575 476.484 C 789 476.801 788.654 477.282 788.536 477.928 C 788.161 479.97 787.122 481.438 785.42 482.33 C 785.033 482.529 784.769 482.84 784.628 483.263 C 784.322 484.19 783.8 484.959 783.061 485.569 C 782.345 486.156 781.699 486.837 781.124 487.612 C 779.011 490.476 776.916 493.334 774.838 496.186 C 774.481 496.694 774.262 497.283 774.205 497.894 C 774.099 499.15 773.436 499.848 772.215 499.989 C 771.335 500.095 770.583 500.517 769.961 501.257 C 769.386 501.938 769.392 502.624 769.979 503.317 C 770.371 503.756 770.232 504.453 769.697 504.725 C 764.662 507.19 761.44 511.123 760.031 516.522 C 759.82 517.32 759.356 517.913 758.64 518.3 C 756.727 519.357 755.183 520.765 754.01 522.526 C 752.519 524.768 750.441 526.165 747.777 526.716 C 747.425 526.787 747.378 526.951 747.636 527.209 C 747.695 527.256 747.759 527.291 747.83 527.315 C 748.346 527.397 748.499 527.69 748.287 528.195 C 747.841 529.24 747.407 530.314 746.985 531.417 C 746.762 531.981 746.351 532.274 745.752 532.298 C 744.543 532.368 743.27 532.884 741.931 533.847 C 741.497 534.164 741.233 534.586 741.139 535.115 C 740.916 536.441 741.215 537.48 742.037 538.231 C 742.448 538.607 742.465 539.006 742.09 539.428 C 741.926 539.616 741.738 539.757 741.526 539.851 C 740.74 540.179 740.535 540.725 740.91 541.488 C 741.298 542.31 741.321 543.126 740.981 543.936 C 740.781 544.405 740.893 544.775 741.315 545.045 C 742.407 545.726 743.099 546.629 743.393 547.756 C 743.545 548.355 743.416 548.889 743.005 549.358 C 741.984 550.544 742.025 551.595 743.129 552.51 C 743.478 552.794 743.554 553.292 743.305 553.654 C 742.953 554.171 742.771 554.752 742.759 555.398 C 742.747 556.114 742.941 556.794 743.34 557.44 C 745.617 561.09 747.8 564.764 749.89 568.462 C 750.876 570.211 751.644 572.095 752.196 574.113 C 752.724 576.027 753.399 577.946 754.221 579.871 C 755.453 582.735 755.794 585.851 755.242 589.22 C 754.96 590.875 754.937 592.378 755.172 593.727 C 755.313 594.608 755.142 595.394 754.661 596.087 C 754.121 596.85 754.262 597.442 755.084 597.865 C 756.668 598.698 757.161 599.678 756.563 600.805 C 736.96 595.077 717.64 595.693 698.601 602.654 C 687.192 606.821 677.773 613.646 670.343 623.131 C 665.014 629.927 662.419 637.374 662.56 645.474 C 662.572 646.354 662.466 647.076 662.243 647.639 C 661.973 648.355 661.633 648.39 661.222 647.745 C 661.117 647.569 660.964 647.457 660.764 647.41 C 660.295 647.328 659.849 647.375 659.426 647.551 C 657.713 648.255 655.999 649.024 654.285 649.858 C 654.086 649.951 653.945 650.11 653.863 650.333 C 653.816 650.497 653.921 650.638 654.18 650.756 C 654.532 650.908 654.584 651.125 654.338 651.407 C 653.235 652.745 652.794 654.324 653.017 656.143 C 653.123 657.094 652.982 657.135 652.595 656.266 C 652.525 656.114 652.501 655.949 652.525 655.773 C 652.595 655.257 652.489 655.222 652.208 655.668 C 652.114 655.832 652.014 655.985 651.908 656.126 C 651.72 656.372 651.574 656.349 651.468 656.055 C 651.116 655.022 651.145 654.054 651.556 653.15 C 651.744 652.739 651.762 652.323 651.609 651.9 C 651.398 651.29 651.004 650.832 650.429 650.527 C 649.842 650.221 649.244 650.198 648.633 650.456 C 646.004 651.536 643.481 652.393 641.063 653.027 C 640.182 653.25 639.953 653.76 640.376 654.559 C 640.928 655.638 640.922 656.777 640.358 657.974 C 640.018 658.714 639.848 658.679 639.848 657.869 L 639.848 653.555 C 639.848 653.05 639.601 652.868 639.108 653.009 C 628.697 656.038 618.526 659.647 608.596 663.837 C 606.06 664.905 603.343 665.78 600.444 666.461 C 597.075 667.247 594.346 668.051 592.257 668.873 C 589.346 670.035 586.429 671.209 583.506 672.394 C 582.966 672.617 582.409 672.67 581.834 672.553 C 579.439 672.095 577.89 672.881 577.185 674.912 C 577.03 675.351 576.547 675.585 576.094 675.44 C 574.697 674.971 573.441 674.947 572.326 675.37 C 571.868 675.534 571.528 675.399 571.305 674.965 C 571.199 674.777 571.152 674.572 571.164 674.349 C 571.199 673.926 571.005 673.721 570.583 673.732 C 570.407 673.732 570.237 673.762 570.072 673.82 C 569.58 674.017 569.406 674.626 569.72 675.053 C 569.873 675.252 569.949 675.469 569.949 675.704 C 569.961 675.822 570.019 675.874 570.125 675.863 C 570.196 675.851 570.248 675.822 570.284 675.775 C 570.542 675.516 570.689 675.563 570.724 675.916 C 570.735 675.974 570.735 676.033 570.724 676.092 C 570.7 676.256 570.606 676.32 570.442 676.285 C 569.045 675.968 568.235 676.637 568.012 678.292 C 567.954 678.715 567.795 678.762 567.537 678.433 C 567.42 678.269 567.308 678.105 567.202 677.94 C 566.733 677.13 566.956 676.655 567.871 676.514 C 568.364 676.444 568.617 676.103 568.629 675.493 C 568.652 674.73 568.282 674.36 567.519 674.384 C 566.698 674.407 566.181 674.818 565.97 675.616 C 565.817 676.191 565.453 676.42 564.878 676.303 C 564.139 676.15 563.47 675.669 562.871 674.859 C 574.116 668.779 584.158 661.085 592.996 651.777 C 599.652 644.752 609.811 635.262 607.064 624.345 C 606.583 622.432 605.309 620.824 603.243 619.521 C 590.39 611.387 587.626 626.423 581.534 632.92 C 561.41 654.365 536.109 667.359 507.058 665.228 C 482.62 663.421 462.454 653.361 446.561 635.05 C 442.212 630.032 437.951 622.743 432.846 619.257 C 428.796 616.499 425.016 616.927 421.507 620.542 C 414.693 627.567 419.341 637.498 424.94 643.818 C 432.493 652.358 441.244 661.408 450.399 667.781 C 467.079 679.355 485.912 685.681 506.899 686.761 L 507.463 689.543 C 507.703 690.736 507.019 691.925 505.861 692.325 C 495.484 695.846 485.419 696.985 475.665 695.741 C 474.644 695.6 474.55 695.835 475.383 696.445 C 475.947 696.856 476.557 697.061 477.214 697.061 C 477.614 697.061 477.842 697.255 477.901 697.642 C 477.96 697.959 477.854 698.247 477.584 698.505 C 477.416 698.65 477.191 698.715 476.968 698.681 C 476.334 698.587 475.964 698.839 475.859 699.438 C 475.777 699.947 475.175 700.175 474.776 699.85 C 474.773 699.848 474.77 699.845 474.767 699.843 C 473.969 699.162 473.1 698.916 472.161 699.104 C 470.424 699.432 468.71 699.385 467.02 698.963 C 464.79 698.399 463.147 698.135 462.09 698.17 C 459.625 698.258 457.495 698.364 455.083 697.801 C 446.549 695.84 438.257 693.71 430.205 691.409 C 429.773 691.295 429.397 691.019 429.148 690.635 C 428.831 690.153 428.409 689.842 427.88 689.702 C 424.852 688.868 421.924 687.642 419.095 686.022 C 415.315 683.85 411.647 682.037 408.091 680.581 C 404.452 679.091 400.883 677.488 397.386 675.775 C 393.407 673.838 389.557 672.523 385.836 671.831 C 382.185 671.15 378.787 670.387 375.641 669.542 C 372.73 668.755 369.866 668.45 367.049 668.626 C 363.774 668.838 360.611 668.902 357.559 668.82 C 356.503 668.785 355.441 668.92 354.372 669.225 C 353.809 669.389 353.263 669.342 352.735 669.084 C 351.373 668.439 349.208 668.139 346.238 668.186 C 360.306 659.929 367.771 644.576 359.461 630.244 C 350.657 615.031 337.37 605.037 319.599 600.259 C 306.03 596.597 292.485 595.928 278.963 598.252 C 261.321 601.281 240.351 613.746 238.203 633.466 C 237.024 644.329 244.26 654.03 252.676 660.175 C 254.554 662.394 256.978 664.142 259.948 665.422 C 260.304 665.571 260.61 665.822 260.828 666.144 C 261.344 666.895 262.055 667.153 262.958 666.918 C 263.123 666.872 263.275 666.907 263.416 667.024 C 263.534 667.141 263.651 667.259 263.768 667.376 C 263.944 667.588 263.897 667.681 263.627 667.658 C 261.937 667.517 260.27 667.57 258.627 667.816 C 257.935 667.922 257.852 667.74 258.381 667.271 C 258.486 667.177 258.639 667.165 258.838 667.235 C 259.038 667.294 259.173 667.23 259.243 667.042 C 259.431 666.549 259.355 666.12 259.014 665.756 C 258.568 665.256 257.765 665.327 257.412 665.897 C 257.154 666.308 256.808 666.443 256.373 666.302 C 255.446 666.009 255.206 666.296 255.652 667.165 C 255.792 667.447 255.88 667.746 255.916 668.063 C 255.994 668.633 255.432 669.079 254.894 668.873 C 253.838 668.474 252.752 668.216 251.637 668.098 C 250.463 667.969 249.348 667.611 248.292 667.024 C 244.818 665.134 241.32 663.356 237.798 661.689 C 236.589 661.114 236.073 661.49 236.249 662.816 L 236.337 663.52 C 236.501 664.765 236.044 665.07 234.964 664.436 L 231.935 662.693 C 231.654 662.529 231.46 662.3 231.354 662.006 L 230.333 659.242 C 230.11 658.643 229.693 658.426 229.083 658.591 C 228.238 658.837 227.686 658.502 227.428 657.587 C 227.217 656.824 226.812 656.701 226.213 657.217 L 224.259 658.872 C 224.083 659.013 223.883 659.083 223.66 659.083 C 223.496 659.083 223.343 659.066 223.202 659.031 C 222.404 658.808 222.539 658.667 223.607 658.608 C 223.854 658.596 224.042 658.502 224.171 658.326 C 224.464 657.892 224.388 657.534 223.942 657.252 C 220.456 655.116 216.975 653.226 213.501 651.583 C 211.529 650.644 209.71 649.511 208.043 648.185 C 206.282 646.776 204.545 645.456 202.831 644.223 C 201.441 643.202 201.053 641.723 199.697 640.561 C 196.516 637.815 193.476 634.851 190.577 631.67 C 187.197 627.961 183.523 624.486 179.555 621.247 C 177.853 619.85 176.263 618.265 174.784 616.493 C 173.246 614.662 171.533 612.948 169.643 611.352 C 166.697 608.863 163.962 606.299 161.438 603.658 C 158.914 601.017 156.309 598.587 153.621 596.368 C 149.055 592.601 144.723 588.252 140.627 583.322 C 138.925 581.268 136.853 579.425 134.412 577.793 C 134.036 577.547 133.743 577.23 133.531 576.843 C 133.038 575.95 132.405 575.111 131.63 574.325 C 127.616 570.299 123.678 566.507 119.816 562.951 C 119.405 562.575 118.935 562.464 118.407 562.616 C 117.269 562.968 116.371 562.599 115.713 561.507 C 115.674 561.452 115.59 561.46 115.562 561.521 C 115.559 561.528 115.556 561.535 115.555 561.542 C 115.156 563.596 114.921 564.653 114.851 564.712 C 114.804 564.747 114.751 564.758 114.692 564.747 L 114.675 564.747 C 114.522 564.723 114.457 564.635 114.481 564.483 C 114.786 561.63 114.904 558.743 114.833 555.82 C 114.821 555.48 114.657 555.239 114.34 555.098 C 114.27 555.063 114.211 555.075 114.164 555.133 C 113.507 555.756 113.202 555.597 113.248 554.658 C 113.295 553.684 113.102 553.015 112.667 552.651 C 112.761 543.66 113.824 531.969 115.854 517.578 C 122.944 467.517 139.418 420.812 165.276 377.464 C 175.253 360.738 186.24 344.745 198.236 329.486 C 198.729 329.638 199.14 329.814 199.469 330.014 C 199.856 330.249 200.032 330.143 199.997 329.697 C 199.997 329.65 200.003 329.597 200.014 329.539 C 200.097 329.198 200.22 329.181 200.384 329.486 C 202.509 333.5 204.839 337.708 207.374 342.11 C 209.663 346.065 211.324 350.332 212.357 354.91 C 213.976 362.023 215.397 368.555 216.617 374.506 C 217.075 376.736 217.328 379.013 217.375 381.338 C 217.386 381.909 217.577 382.453 217.92 382.887 C 218.801 384.026 218.889 385.475 218.184 387.236 C 197.743 418.629 181.228 454.458 175.999 491.327 C 174.449 502.26 173.71 516.592 180.982 525.748 C 189.257 536.206 203.536 534.076 209.311 522.367 C 211.823 517.297 213.589 511.868 214.61 506.081 C 216.383 496.034 218.719 486.274 221.618 476.801 C 222.827 476.156 223.701 474.524 224.241 471.907 C 224.335 471.472 224.576 471.355 224.963 471.554 C 225.127 471.637 225.262 471.748 225.368 471.889 C 225.527 472.079 225.555 472.349 225.438 472.576 C 225.286 472.869 225.168 473.174 225.086 473.491 C 224.875 474.348 225.204 474.677 226.072 474.477 C 228.889 473.796 231.519 474.319 233.96 476.044 C 236.519 477.84 237.857 478.773 237.974 478.844 C 240.803 480.323 243.65 481.696 246.514 482.964 C 247.288 483.304 248.357 484.131 249.718 485.446 C 250.692 486.385 251.755 487.107 252.905 487.612 C 255.792 488.879 257.923 491.115 260.74 492.471 C 264.754 494.396 268.769 496.433 272.783 498.581 C 273.053 498.722 273.34 498.792 273.646 498.792 C 273.822 498.792 273.998 498.792 274.174 498.792 C 274.409 498.78 274.632 498.833 274.843 498.95 C 277.343 500.394 279.861 501.75 282.396 503.018 C 284.497 504.086 286.857 504.902 289.474 505.465 C 291.822 505.97 294.193 506.65 296.587 507.507 C 297.08 507.683 297.55 507.631 297.996 507.349 C 298.344 507.135 298.769 507.072 299.175 507.173 C 301.265 507.748 303.471 508.253 305.795 508.687 C 306.347 508.793 306.84 509.01 307.274 509.338 C 307.451 509.479 307.615 509.626 307.767 509.779 C 308.119 510.142 308.587 510.367 309.088 510.412 C 310.52 510.518 311.852 510.864 313.085 511.451 C 313.578 511.686 314.077 511.709 314.581 511.522 C 316.307 510.876 318.026 511.304 319.74 512.807 C 319.975 513.018 319.992 513.247 319.793 513.494 C 319.546 513.775 319.505 514.086 319.67 514.427 C 320.057 515.225 320.462 515.231 320.884 514.444 L 321.131 513.969 C 321.284 513.687 321.477 513.658 321.712 513.881 C 322.944 515.043 324.494 515.624 325.568 516.892 C 326.507 517.972 327.569 518.711 328.755 519.11 C 329.318 519.298 329.758 519.638 330.075 520.131 C 330.474 520.742 331.032 521.064 331.748 521.1 C 332.206 521.123 332.423 520.9 332.399 520.431 C 332.388 519.985 332.746 519.591 333.473 519.251 C 332.804 531.752 335.117 544.681 340.41 558.039 C 348.879 579.413 364.232 594.678 388.142 597.055 C 416.26 599.855 435.927 573.709 442.635 549.623 C 447.037 533.8 447.758 517.555 444.801 500.887 C 446.186 500.347 446.896 499.678 446.931 498.88 C 446.997 497.478 448.184 496.384 449.607 496.415 C 454.22 496.544 458.475 495.693 462.372 493.862 C 462.806 493.651 463.258 493.58 463.728 493.651 C 467.906 494.226 471.956 493.692 475.876 492.049 C 476.452 491.802 477.044 491.702 477.655 491.749 C 480.847 492.019 483.852 491.79 486.669 491.063 C 489.545 490.311 492.509 489.824 495.561 489.601 C 501.089 489.19 506.588 488.392 512.058 487.207 C 515.356 486.479 518.766 485.98 522.288 485.71 C 525.48 485.464 528.679 484.924 531.883 484.09 C 534.149 483.503 537.517 483.55 541.99 484.231 C 542.613 484.323 543.25 484.25 543.838 484.02 C 547.677 482.506 551.45 481.913 555.159 482.242 C 557.431 482.453 558.892 481.661 560.934 483.14 C 561.251 483.374 561.58 483.392 561.92 483.192 C 562.578 482.793 563.258 482.758 563.963 483.087 C 565.853 483.944 567.707 484.09 569.526 483.527 C 570.09 483.351 570.653 483.357 571.217 483.545 C 573.024 484.167 574.82 484.313 576.604 483.985 C 577.156 483.879 577.655 484.008 578.101 484.372 C 578.477 484.677 578.893 484.795 579.351 484.724 C 580.055 484.607 580.713 484.718 581.323 485.059 C 583.025 485.998 583.782 487.917 583.594 490.816 C 577.068 512.778 577.673 534.563 585.408 556.172 C 594.634 581.948 621.801 606.51 651.257 594.608 C 671.205 586.544 683.688 568.92 689.727 548.901 C 696.16 527.561 695.356 506.169 687.315 484.724 C 693.607 476.919 698.378 468.573 701.63 459.687 C 711.137 452.416 702.51 440.76 696.788 434.422 C 697.175 431.922 698.097 429.627 699.552 427.538 C 700.902 425.589 702.017 423.682 702.897 421.815 C 703.766 419.937 704.676 418.053 705.626 416.164 C 706.964 413.487 707.921 410.612 708.496 407.536 C 709.071 404.508 709.782 401.597 710.627 398.803 C 711.613 395.517 712.569 392.125 713.497 388.627 C 713.532 388.451 713.502 388.28 713.409 388.116 C 713.338 387.987 713.262 387.858 713.18 387.729 C 713.144 387.67 713.15 387.617 713.197 387.57 C 715.052 385.997 715.961 384.008 715.926 381.602 C 715.915 380.827 716.091 380.093 716.454 379.401 C 717.335 377.687 717.71 375.856 717.581 373.908 C 717.546 373.274 717.822 372.857 718.409 372.657 C 718.55 372.599 718.691 372.64 718.831 372.781 C 718.961 372.898 719.054 372.875 719.113 372.71 L 723.321 360.544 C 723.521 359.981 723.82 359.476 724.219 359.03 C 724.806 358.373 725 357.61 724.8 356.741 C 724.647 356.048 724.7 355.379 724.959 354.734 C 726.649 350.52 728.779 346.377 731.35 342.303 C 732.535 340.425 733.463 338.6 734.132 336.828 C 735.012 334.539 736.192 330.225 738.48 328.975 C 739.173 328.6 739.167 328.236 738.463 327.884 C 737.618 327.473 737.166 326.815 737.107 325.912 Z"/>
  <path fill="#fff7db" d="M 294.087 417.265 C 286.821 411.608 285.739 400.846 291.67 393.227 C 297.602 385.608 308.301 384.017 315.567 389.673 C 322.833 395.33 323.915 406.092 317.984 413.712 C 312.052 421.331 301.354 422.922 294.087 417.265 Z"/>
  <path fill="#3e0d24" d="M 425.134 438.559 C 418.003 433.63 409.657 429.105 401.013 427.978 C 389.521 426.475 377.895 427.755 366.134 431.816 C 353.645 436.124 343.597 444.293 335.991 456.325 C 333.632 460.04 328.667 461.747 324.881 458.79 C 311.711 448.525 335.586 428.453 343.034 422.643 C 358.504 410.518 376.246 405.159 396.259 406.568 C 409.206 407.472 421.131 412.196 432.036 420.741 C 436.437 424.192 443.691 433.225 438.656 438.718 C 434.747 442.943 429.236 441.376 425.134 438.559 Z"/>
  <path fill="#3e0d24" d="M 696.788 434.422 C 702.51 440.76 711.137 452.416 701.63 459.687 C 694.164 463.068 689.921 457.011 685.625 451.641 C 683.148 448.531 680.73 445.925 678.371 443.824 C 665.201 432.121 648.974 426.839 629.689 427.978 C 619.934 428.553 611.254 431.347 603.648 436.359 C 600.972 438.119 595.62 442.609 592.468 442.169 C 589.774 441.799 584.739 439.264 585.76 435.654 C 586.441 433.283 587.004 430.842 587.45 428.33 C 587.591 427.52 587.931 426.81 588.471 426.199 C 606.87 405.388 639.478 402.272 663.81 411.639 C 676.135 416.381 687.128 423.975 696.788 434.422 Z"/>
  <path fill="#ff7500" d="M 833.698 444.017 C 842.583 469.336 847.742 493.393 849.174 516.187 C 849.855 527.01 850.26 534.058 850.389 537.333 C 851.046 553.649 850.565 569.342 848.945 584.413 C 847.536 597.572 845.289 609.961 842.202 621.581 C 837.06 640.878 831.139 658.215 824.436 673.591 C 819.659 684.555 813.55 696.38 806.108 709.069 C 800.755 718.201 794.112 727.609 786.177 737.293 C 772.913 753.491 760.988 766.619 750.4 776.679 C 742.043 784.613 730.939 793.88 717.088 804.48 C 703.684 814.727 691.582 822.597 680.783 828.09 C 674.527 831.271 663.359 836.248 647.278 843.021 C 622.963 853.25 598.736 859.501 573.453 864.378 C 564.79 866.056 556.198 867.259 547.677 867.987 C 536.109 868.991 524.893 870.751 512.956 870.91 C 499.563 871.074 487.426 870.892 476.545 870.364 C 463.117 869.695 447.723 868.022 430.363 865.346 C 418.848 863.574 407.621 861.173 396.681 858.145 C 364.308 849.189 333.262 836.653 303.542 820.537 C 297.274 817.139 291.235 812.825 284.685 809.462 C 282.126 808.148 279.667 806.634 277.308 804.92 C 268.628 798.634 259.243 793.247 250.616 786.697 C 236.308 775.839 222.169 765.428 208.201 755.463 C 196.37 747.011 182.372 733.454 168.71 722.908 C 160.775 716.792 155.417 712.168 152.635 709.034 C 146.273 701.885 140.063 694.79 134.007 687.747 C 132.052 685.476 131.19 682.958 129.834 680.388 C 129.47 679.707 129.23 679.748 129.112 680.511 L 128.602 683.909 C 115.314 641.136 110.003 597.384 112.667 552.651 C 113.102 553.015 113.295 553.684 113.248 554.658 C 113.202 555.597 113.507 555.756 114.164 555.133 C 114.211 555.075 114.27 555.063 114.34 555.098 C 114.657 555.239 114.821 555.48 114.833 555.82 C 114.904 558.743 114.786 561.63 114.481 564.483 C 114.457 564.635 114.522 564.723 114.675 564.747 L 114.692 564.747 C 114.751 564.758 114.804 564.747 114.851 564.712 C 114.921 564.653 115.156 563.596 115.555 561.542 C 115.567 561.476 115.647 561.447 115.698 561.491 C 115.704 561.496 115.709 561.501 115.713 561.507 C 116.371 562.599 117.269 562.968 118.407 562.616 C 118.935 562.464 119.405 562.575 119.816 562.951 C 123.678 566.507 127.616 570.299 131.63 574.325 C 132.405 575.111 133.038 575.95 133.531 576.843 C 133.743 577.23 134.036 577.547 134.412 577.793 C 136.853 579.425 138.925 581.268 140.627 583.322 C 144.723 588.252 149.055 592.601 153.621 596.368 C 156.309 598.587 158.914 601.017 161.438 603.658 C 163.962 606.299 166.697 608.863 169.643 611.352 C 171.533 612.948 173.246 614.662 174.784 616.493 C 176.263 618.265 177.853 619.85 179.555 621.247 C 183.523 624.486 187.197 627.961 190.577 631.67 C 193.476 634.851 196.516 637.815 199.697 640.561 C 201.053 641.723 201.441 643.202 202.831 644.223 C 204.545 645.456 206.282 646.776 208.043 648.185 C 209.71 649.511 211.529 650.644 213.501 651.583 C 216.975 653.226 220.456 655.116 223.942 657.252 C 224.388 657.534 224.464 657.892 224.171 658.326 C 224.042 658.502 223.854 658.596 223.607 658.608 C 222.539 658.667 222.404 658.808 223.202 659.031 C 223.343 659.066 223.496 659.083 223.66 659.083 C 223.883 659.083 224.083 659.013 224.259 658.872 L 226.213 657.217 C 226.812 656.701 227.217 656.824 227.428 657.587 C 227.686 658.502 228.238 658.837 229.083 658.591 C 229.693 658.426 230.11 658.643 230.333 659.242 L 231.354 662.006 C 231.46 662.3 231.654 662.529 231.935 662.693 L 234.964 664.436 C 236.044 665.07 236.501 664.765 236.337 663.52 L 236.249 662.816 C 236.073 661.49 236.589 661.114 237.798 661.689 C 241.32 663.356 244.818 665.134 248.292 667.024 C 249.348 667.611 250.463 667.969 251.637 668.098 C 252.752 668.216 253.838 668.474 254.894 668.873 C 255.432 669.079 255.994 668.633 255.916 668.063 C 255.88 667.746 255.792 667.447 255.652 667.165 C 255.206 666.296 255.446 666.009 256.373 666.302 C 256.808 666.443 257.154 666.308 257.412 665.897 C 257.765 665.327 258.568 665.256 259.014 665.756 C 259.355 666.12 259.431 666.549 259.243 667.042 C 259.173 667.23 259.038 667.294 258.838 667.235 C 258.639 667.165 258.486 667.177 258.381 667.271 C 257.852 667.74 257.935 667.922 258.627 667.816 C 260.27 667.57 261.937 667.517 263.627 667.658 C 263.897 667.681 263.944 667.588 263.768 667.376 C 263.651 667.259 263.534 667.141 263.416 667.024 C 263.275 666.907 263.123 666.872 262.958 666.918 C 262.055 667.153 261.344 666.895 260.828 666.144 C 260.61 665.822 260.304 665.571 259.948 665.422 C 256.978 664.142 254.554 662.394 252.676 660.175 C 262.137 665.856 270.617 669.747 278.118 671.848 C 293.318 676.121 309.575 676.796 326.888 673.873 C 332.863 672.875 339.313 670.98 346.238 668.186 C 349.208 668.139 351.373 668.439 352.735 669.084 C 353.263 669.342 353.809 669.389 354.372 669.225 C 355.441 668.92 356.503 668.785 357.559 668.82 C 360.611 668.902 363.774 668.838 367.049 668.626 C 369.866 668.45 372.73 668.755 375.641 669.542 C 378.787 670.387 382.185 671.15 385.836 671.831 C 389.557 672.523 393.407 673.838 397.386 675.775 C 400.883 677.488 404.452 679.091 408.091 680.581 C 411.647 682.037 415.315 683.85 419.095 686.022 C 421.924 687.642 424.852 688.868 427.88 689.702 C 428.409 689.842 428.831 690.153 429.148 690.635 C 429.397 691.019 429.773 691.295 430.205 691.409 C 438.257 693.71 446.549 695.84 455.083 697.801 C 457.495 698.364 459.625 698.258 462.09 698.17 C 463.147 698.135 464.79 698.399 467.02 698.963 C 468.71 699.385 470.424 699.432 472.161 699.104 C 473.1 698.916 473.969 699.162 474.767 699.843 C 475.161 700.175 475.766 699.956 475.857 699.449 C 475.858 699.445 475.858 699.442 475.859 699.438 C 475.964 698.839 476.334 698.587 476.968 698.681 C 477.191 698.715 477.416 698.65 477.584 698.505 C 477.854 698.247 477.96 697.959 477.901 697.642 C 477.842 697.255 477.614 697.061 477.214 697.061 C 476.557 697.061 475.947 696.856 475.383 696.445 C 474.55 695.835 474.644 695.6 475.665 695.741 C 485.419 696.985 495.484 695.846 505.861 692.325 C 507.019 691.925 507.703 690.736 507.463 689.543 L 506.899 686.761 C 527.552 687.923 544.314 684.155 562.871 674.859 C 563.47 675.669 564.139 676.15 564.878 676.303 C 565.453 676.42 565.817 676.191 565.97 675.616 C 566.181 674.818 566.698 674.407 567.519 674.384 C 568.282 674.36 568.652 674.73 568.629 675.493 C 568.617 676.103 568.364 676.444 567.871 676.514 C 566.956 676.655 566.733 677.13 567.202 677.94 C 567.308 678.105 567.42 678.269 567.537 678.433 C 567.795 678.762 567.954 678.715 568.012 678.292 C 568.235 676.637 569.045 675.968 570.442 676.285 C 570.606 676.32 570.7 676.256 570.724 676.092 C 570.735 676.033 570.735 675.974 570.724 675.916 C 570.689 675.563 570.542 675.516 570.284 675.775 C 570.248 675.822 570.196 675.851 570.125 675.863 C 570.019 675.874 569.961 675.822 569.949 675.704 C 569.949 675.469 569.873 675.252 569.72 675.053 C 569.406 674.626 569.58 674.017 570.072 673.82 C 570.237 673.762 570.407 673.732 570.583 673.732 C 571.005 673.721 571.199 673.926 571.164 674.349 C 571.152 674.572 571.199 674.777 571.305 674.965 C 571.528 675.399 571.868 675.534 572.326 675.37 C 573.441 674.947 574.697 674.971 576.094 675.44 C 576.547 675.585 577.03 675.351 577.185 674.912 C 577.89 672.881 579.439 672.095 581.834 672.553 C 582.409 672.67 582.966 672.617 583.506 672.394 C 586.429 671.209 589.346 670.035 592.257 668.873 C 594.346 668.051 597.075 667.247 600.444 666.461 C 603.343 665.78 606.06 664.905 608.596 663.837 C 618.526 659.647 628.697 656.038 639.108 653.009 C 639.601 652.868 639.848 653.05 639.848 653.555 L 639.848 657.869 C 639.848 658.679 640.018 658.714 640.358 657.974 C 640.922 656.777 640.928 655.638 640.376 654.559 C 639.953 653.76 640.182 653.25 641.063 653.027 C 643.481 652.393 646.004 651.536 648.633 650.456 C 649.244 650.198 649.842 650.221 650.429 650.527 C 651.004 650.832 651.398 651.29 651.609 651.9 C 651.762 652.323 651.744 652.739 651.556 653.15 C 651.145 654.054 651.116 655.022 651.468 656.055 C 651.574 656.349 651.72 656.372 651.908 656.126 C 652.014 655.985 652.114 655.832 652.208 655.668 C 652.489 655.222 652.595 655.257 652.525 655.773 C 652.501 655.949 652.525 656.114 652.595 656.266 C 652.982 657.135 653.123 657.094 653.017 656.143 C 652.794 654.324 653.235 652.745 654.338 651.407 C 654.584 651.125 654.532 650.908 654.18 650.756 C 653.921 650.638 653.816 650.497 653.863 650.333 C 653.945 650.11 654.086 649.951 654.285 649.858 C 655.999 649.024 657.713 648.255 659.426 647.551 C 659.849 647.375 660.295 647.328 660.764 647.41 C 660.964 647.457 661.117 647.569 661.222 647.745 C 661.633 648.39 661.973 648.355 662.243 647.639 C 662.466 647.076 662.572 646.354 662.56 645.474 C 663.705 654.805 669.445 661.425 677.368 666.197 C 690.256 673.979 701.436 675.599 716.226 675.687 C 734.854 675.781 752.132 671.555 768.06 663.01 C 771.528 661.143 774.257 658.626 777.356 656.284 C 783.325 651.759 786.283 644.857 787.198 637.568 C 788.783 625.085 779.099 612.989 769.011 606.668 C 765.114 604.227 760.964 602.272 756.563 600.805 C 757.161 599.678 756.668 598.698 755.084 597.865 C 754.262 597.442 754.121 596.85 754.661 596.087 C 755.142 595.394 755.313 594.608 755.172 593.727 C 754.937 592.378 754.96 590.875 755.242 589.22 C 755.794 585.851 755.453 582.735 754.221 579.871 C 753.399 577.946 752.724 576.027 752.196 574.113 C 751.644 572.095 750.876 570.211 749.89 568.462 C 747.8 564.764 745.617 561.09 743.34 557.44 C 742.941 556.794 742.747 556.114 742.759 555.398 C 742.771 554.752 742.953 554.171 743.305 553.654 C 743.554 553.292 743.478 552.794 743.129 552.51 C 742.025 551.595 741.984 550.544 743.005 549.358 C 743.416 548.889 743.545 548.355 743.393 547.756 C 743.099 546.629 742.407 545.726 741.315 545.045 C 740.893 544.775 740.781 544.405 740.981 543.936 C 741.321 543.126 741.298 542.31 740.91 541.488 C 740.535 540.725 740.74 540.179 741.526 539.851 C 741.738 539.757 741.926 539.616 742.09 539.428 C 742.465 539.006 742.448 538.607 742.037 538.231 C 741.215 537.48 740.916 536.441 741.139 535.115 C 741.233 534.586 741.497 534.164 741.931 533.847 C 743.27 532.884 744.543 532.368 745.752 532.298 C 746.351 532.274 746.762 531.981 746.985 531.417 C 747.407 530.314 747.841 529.24 748.287 528.195 C 748.499 527.69 748.346 527.397 747.83 527.315 C 747.759 527.291 747.695 527.256 747.636 527.209 C 747.378 526.951 747.425 526.787 747.777 526.716 C 750.441 526.165 752.519 524.768 754.01 522.526 C 755.183 520.765 756.727 519.357 758.64 518.3 C 759.356 517.913 759.82 517.32 760.031 516.522 C 761.44 511.123 764.662 507.19 769.697 504.725 C 770.232 504.453 770.371 503.756 769.979 503.317 C 769.392 502.624 769.386 501.938 769.961 501.257 C 770.583 500.517 771.335 500.095 772.215 499.989 C 773.436 499.848 774.099 499.15 774.205 497.894 C 774.262 497.283 774.481 496.694 774.838 496.186 C 776.916 493.334 779.011 490.476 781.124 487.612 C 781.699 486.837 782.345 486.156 783.061 485.569 C 783.8 484.959 784.322 484.19 784.628 483.263 C 784.769 482.84 785.033 482.529 785.42 482.33 C 787.122 481.438 788.161 479.97 788.536 477.928 C 788.654 477.282 789 476.801 789.575 476.484 L 790.015 476.255 C 790.602 475.938 790.954 475.445 791.072 474.776 C 791.436 472.769 792.598 471.414 794.558 470.709 C 794.975 470.563 795.323 470.254 795.526 469.847 C 795.62 469.647 795.679 469.43 795.702 469.195 C 795.749 468.784 795.919 468.432 796.213 468.139 C 799.194 465.216 802.246 462.728 805.368 460.673 C 805.932 460.31 806.172 459.799 806.09 459.142 C 806.02 458.555 806.155 458.021 806.495 457.539 C 808.397 454.816 811.008 452.78 814.33 451.43 C 814.743 451.272 815.198 451.483 815.316 451.888 C 815.527 452.545 815.856 453.091 816.302 453.525 C 816.924 454.135 817.441 454.065 817.852 453.314 C 818.039 452.973 818.163 452.621 818.221 452.257 C 818.315 451.553 818.72 451.166 819.436 451.095 C 820.493 451.013 821.408 450.638 822.183 449.969 C 822.676 449.534 823.251 449.37 823.908 449.476 C 826.361 449.863 828.398 448.947 830.018 446.729 C 830.306 446.326 830.889 446.284 831.233 446.641 C 831.573 446.993 831.79 447.404 831.884 447.873 C 832.072 448.754 832.553 448.959 833.328 448.49 C 833.398 448.443 833.475 448.413 833.557 448.402 C 834.238 448.272 834.302 447.973 833.75 447.504 C 832.647 446.565 832.629 445.403 833.698 444.017 Z"/>
  <path fill="#3e0d24" d="M 444.801 500.887 C 447.758 517.555 447.037 533.8 442.635 549.623 C 435.927 573.709 416.26 599.855 388.142 597.055 C 364.232 594.678 348.879 579.413 340.41 558.039 C 335.117 544.681 332.804 531.752 333.473 519.251 C 333.385 492.911 345.904 464.036 370.782 452.469 C 388.635 444.141 413.531 448.032 427.141 463.455 C 435.686 473.116 441.573 485.593 444.801 500.887 Z"/>
  <path fill="#3e0d24" d="M 687.315 484.724 C 695.356 506.169 696.16 527.561 689.727 548.901 C 683.688 568.92 671.205 586.544 651.257 594.608 C 621.801 606.51 594.634 581.948 585.408 556.172 C 577.673 534.563 577.068 512.778 583.594 490.816 C 592.116 468.403 608.93 449.282 634.742 448.437 C 651.351 447.897 665.442 454.276 677.015 467.575 C 679.34 470.24 682.773 475.956 687.315 484.724 Z"/>
  <path fill="#f74510" d="M 346.238 668.186 C 339.313 670.98 332.863 672.875 326.888 673.873 C 309.575 676.796 293.318 676.121 278.118 671.848 C 270.617 669.747 262.137 665.856 252.676 660.175 C 244.26 654.03 237.024 644.329 238.203 633.466 C 240.351 613.746 261.321 601.281 278.963 598.252 C 292.485 595.928 306.03 596.597 319.599 600.259 C 337.37 605.037 350.657 615.031 359.461 630.244 C 367.771 644.576 360.306 659.929 346.238 668.186 Z"/>
  <path fill="#f74510" d="M 756.563 600.805 C 760.964 602.272 765.114 604.227 769.011 606.668 C 779.099 612.989 788.783 625.085 787.198 637.568 C 786.283 644.857 783.325 651.759 777.356 656.284 C 774.257 658.626 771.528 661.143 768.06 663.01 C 752.132 671.555 734.854 675.781 716.226 675.687 C 701.436 675.599 690.256 673.979 677.368 666.197 C 669.445 661.425 663.705 654.805 662.56 645.474 C 662.419 637.374 665.014 629.927 670.343 623.131 C 677.773 613.646 687.192 606.821 698.601 602.654 C 717.64 595.693 736.96 595.077 756.563 600.805 Z"/>
  <path fill="#3e0d24" d="M 562.871 674.859 C 544.314 684.155 527.552 687.923 506.899 686.761 C 485.912 685.681 467.079 679.355 450.399 667.781 C 441.244 661.408 432.493 652.358 424.94 643.818 C 419.341 637.498 414.693 627.567 421.507 620.542 C 425.016 616.927 428.796 616.499 432.846 619.257 C 437.951 622.743 442.212 630.032 446.561 635.05 C 462.454 653.361 482.62 663.421 507.058 665.228 C 536.109 667.359 561.41 654.365 581.534 632.92 C 587.626 626.423 590.39 611.387 603.243 619.521 C 605.309 620.824 606.583 622.432 607.064 624.345 C 609.811 635.262 599.652 644.752 592.996 651.777 C 584.158 661.085 574.116 668.779 562.871 674.859 Z"/>
</svg>