<?xml version="1.0" encoding="utf-8"?>
<svg viewBox="0 0 1024 1024" width="1024" height="1024" xmlns="http://www.w3.org/2000/svg">
  <path fill="#519f63" d="M 936.852 22.173 C 905.483 41.787 874.224 60.126 843.076 77.191 C 825.607 86.763 808.869 94.832 792.863 101.395 C 776.886 107.946 748.3 118.958 707.11 134.426 C 702.009 136.348 696.223 138.858 689.751 141.957 C 688.496 142.546 687.26 143.899 686.416 144.998 C 685.455 146.27 686.226 148.108 687.809 148.313 C 695.407 149.293 703.141 150.105 711.013 150.745 C 714.806 151.047 718.494 151.719 722.075 152.765 C 722.746 152.947 722.966 153.789 722.474 154.278 C 722.453 154.297 722.432 154.317 722.409 154.334 C 721.192 155.354 719.807 156.119 718.25 156.629 C 689.117 166.161 658.121 173.281 625.259 177.989 C 620.251 178.709 615.472 179.173 610.921 179.382 C 609.548 179.449 609.457 179.14 610.647 178.46 C 631.417 166.495 651.934 155.157 673.568 144.782 C 682.71 140.402 691.437 136.191 699.754 132.15 C 731.871 116.526 768.051 100.042 808.299 82.703 C 831.896 72.542 855.257 61.048 878.127 49.28 C 878.271 49.202 878.396 49.098 878.5 48.966 C 878.67 48.719 878.723 48.489 878.656 48.28 C 878.487 47.783 878.141 47.561 877.617 47.612 C 875.552 47.837 873.576 48.221 871.693 48.77 C 830.738 60.577 791.196 75.276 753.066 92.863 C 715.092 110.373 677.225 128.751 639.46 147.999 C 622.003 156.904 596.067 172.21 561.65 193.915 C 554.89 198.191 541.297 207.693 520.871 222.416 C 517.203 225.044 513.143 227.202 509.357 229.653 C 507.966 230.559 506.115 229.62 506.027 227.96 C 506.025 227.923 506.023 227.885 506.023 227.848 L 506.003 217.806 L 521.931 169.143 C 522.037 168.817 521.958 168.543 521.695 168.319 C 521.499 168.162 521.298 168.104 521.087 168.143 C 530.443 141.605 547.233 115.321 566.73 94.981 C 596.19 64.226 629.613 41.159 670.49 25.409 C 715.289 8.163 762.278 -0.305 811.458 0.008 C 834.395 0.153 860.658 2.317 890.249 6.501 C 908.111 9.025 923.646 14.249 936.852 22.173 Z M 675.903 90.489 C 685.593 85.351 695.4 77.602 693.811 65.815 C 692.556 56.4 681.12 50.182 672.216 52.143 C 655.936 55.701 641.801 62.253 629.81 71.797 C 622.67 77.485 619.806 85.468 625.298 93.687 C 635.654 109.182 662.487 97.59 675.903 90.489 Z M 606.176 96.823 C 601.469 91.794 592.594 92.449 586.354 98.288 C 580.113 104.129 578.869 112.942 583.577 117.971 C 588.284 123.003 597.16 122.345 603.401 116.506 C 609.64 110.667 610.883 101.854 606.176 96.823 Z" transform="matrix(1, 0, 0, 1, 0, -7.105427357601002e-15)"/>
  <path fill="#043c33" d="M 936.852 22.173 C 940.253 28.097 941.71 33.092 941.226 37.158 C 939.436 51.975 934.231 68.639 925.613 87.155 C 915.99 107.842 906.051 126.509 895.799 143.154 C 890.242 152.19 882.828 161.952 873.557 172.439 C 851.903 196.956 830.503 216.943 801.356 232.556 C 792.322 237.395 782.899 242.312 773.092 247.307 C 770.189 248.158 763.979 250.223 754.458 253.504 C 738.05 259.166 720.211 263.056 700.951 265.175 C 688.803 266.509 675.747 267.019 661.781 266.705 C 621.481 265.764 581.578 259.095 542.074 246.698 C 532.542 244.044 522.892 240.234 513.124 235.263 C 508.887 233.086 505.67 229.732 501.767 226.966 C 499.088 225.058 496.479 222.788 493.941 220.16 C 491.144 217.285 488.566 214.491 486.213 211.784 L 466.775 170.555 C 454.51 146.535 438.001 127.196 417.248 112.536 C 408.175 106.142 398.89 100.069 389.396 94.314 C 387.043 92.89 384.736 90.504 382.473 87.155 C 391.353 91.537 400.59 92.171 410.188 89.057 C 422.716 84.992 431.733 77.675 437.236 67.11 C 438.009 65.618 438.505 63.547 438.726 60.892 C 438.95 58.251 439.538 56.113 440.492 54.478 C 454.485 69.49 465.783 85.802 474.385 103.415 C 484.624 124.403 492.562 146.339 498.198 169.221 C 502.775 183.658 505.376 199.854 506.003 217.806 L 506.023 227.848 C 506.027 229.51 507.826 230.546 509.264 229.712 C 509.295 229.692 509.327 229.675 509.357 229.653 C 513.143 227.202 517.203 225.044 520.871 222.416 C 541.297 207.693 554.89 198.191 561.65 193.915 C 596.067 172.21 622.003 156.904 639.46 147.999 C 677.225 128.751 715.092 110.373 753.066 92.863 C 791.196 75.276 830.738 60.577 871.693 48.77 C 873.576 48.221 875.552 47.837 877.617 47.612 C 878.141 47.561 878.487 47.783 878.656 48.28 C 878.723 48.489 878.67 48.719 878.5 48.966 C 878.396 49.098 878.271 49.202 878.127 49.28 C 855.257 61.048 831.896 72.542 808.299 82.703 C 768.051 100.042 731.871 116.526 699.754 132.15 C 691.437 136.191 682.71 140.402 673.568 144.782 C 651.934 155.157 631.417 166.495 610.647 178.46 C 609.457 179.14 609.548 179.449 610.921 179.382 C 615.472 179.173 620.251 178.709 625.259 177.989 C 658.121 173.281 689.117 166.161 718.25 156.629 C 719.807 156.119 721.192 155.354 722.409 154.334 C 722.946 153.895 722.807 153.038 722.157 152.792 C 722.131 152.783 722.103 152.773 722.075 152.765 C 718.494 151.719 714.806 151.047 711.013 150.745 C 703.141 150.105 695.407 149.293 687.809 148.313 C 686.226 148.108 685.455 146.27 686.416 144.998 C 687.26 143.899 688.496 142.546 689.751 141.957 C 696.223 138.858 702.009 136.348 707.11 134.426 C 748.3 118.958 776.886 107.946 792.863 101.395 C 808.869 94.832 825.607 86.763 843.076 77.191 C 874.224 60.126 905.483 41.787 936.852 22.173 Z" transform="matrix(1, 0, 0, 1, 0, -7.105427357601002e-15)"/>
  <path fill="#519f63" d="M 440.492 54.478 C 439.538 56.113 438.95 58.251 438.726 60.892 C 438.505 63.547 438.009 65.618 437.236 67.11 C 431.733 77.675 422.716 84.992 410.188 89.057 C 400.59 92.171 391.353 91.537 382.473 87.155 C 380.172 86.006 378.76 83.554 378.236 79.8 C 374.901 56.38 403.597 35.667 423.997 40.649 C 430.953 42.35 436.452 46.96 440.492 54.478 Z" transform="matrix(1, 0, 0, 1, 0, -7.105427357601002e-15)"/>
  <path fill="#fff7db" d="M 675.903 90.489 C 662.487 97.59 635.654 109.182 625.298 93.687 C 619.806 85.468 622.67 77.485 629.81 71.797 C 641.801 62.253 655.936 55.701 672.216 52.143 C 681.12 50.182 692.556 56.4 693.811 65.815 C 695.4 77.602 685.593 85.351 675.903 90.489 Z" transform="matrix(1, 0, 0, 1, 0, -7.105427357601002e-15)"/>
  <path fill="#fff7db" d="M 606.176 96.823 C 610.883 101.854 609.64 110.667 603.401 116.506 C 597.16 122.345 588.284 123.003 583.577 117.971 C 578.869 112.942 580.113 104.129 586.354 98.288 C 592.594 92.449 601.469 91.794 606.176 96.823 Z" transform="matrix(1, 0, 0, 1, 0, -7.105427357601002e-15)"/>
  <path fill="#ff8300" d="M 167.99 237.284 C 166.009 245.521 164.871 253.994 163.832 262.39 C 163.53 264.788 161.194 266.381 158.85 265.783 C 157.123 265.339 156.143 264.213 155.907 262.409 C 154.719 253.022 152.946 243.652 150.592 234.302 C 145.898 215.747 134.856 202.299 117.464 193.956 C 112.501 191.563 107.499 190.483 102.419 188.384 C 101.53 188.006 100.917 187.392 100.575 186.541 C 100.099 185.335 100.819 183.989 102.086 183.717 C 130.07 177.467 146.756 160.174 152.142 131.836 C 153.581 124.318 154.974 116.826 156.319 109.358 C 156.844 106.417 158.427 105.587 161.066 106.868 C 161.772 107.209 162.341 108.516 162.772 110.79 C 164.302 118.977 166.003 127.575 167.872 136.583 C 172.227 157.63 185.839 175.283 206.552 180.421 C 210.435 181.39 214.195 182.756 217.83 184.52 C 219.476 185.323 219.648 187.598 218.143 188.639 C 215.123 190.758 211.2 191.483 207.651 192.269 C 205.532 192.74 203.335 193.563 201.06 194.74 C 183.721 203.672 172.698 217.853 167.99 237.284 Z" transform="matrix(1, 0, 0, 1, 0, -7.105427357601002e-15)"/>
  <path fill="#f74510" d="M 521.087 168.143 C 521.298 168.104 521.499 168.162 521.695 168.319 C 521.958 168.543 522.037 168.817 521.931 169.143 L 506.003 217.806 C 505.376 199.854 502.775 183.658 498.198 169.221 L 521.087 168.143 Z" transform="matrix(1, 0, 0, 1, 0, -7.105427357601002e-15)"/>
  <path fill="#f74510" d="M 466.775 170.555 L 486.213 211.784 C 479.336 206.673 472.51 201.781 465.735 197.113 C 461.174 193.963 454.615 190.164 446.063 185.717 C 439.499 182.304 432.915 178.493 426.31 174.282 C 438.015 172.007 445.894 170.922 449.946 171.026 C 455.609 171.171 461.218 171.014 466.775 170.555 Z" transform="matrix(1, 0, 0, 1, 0, -7.105427357601002e-15)"/>
  <path fill="#ff9b02" d="M 426.31 174.282 C 432.915 178.493 439.499 182.304 446.063 185.717 C 454.615 190.164 461.174 193.963 465.735 197.113 C 472.51 201.781 479.336 206.673 486.213 211.784 C 488.566 214.491 491.144 217.285 493.941 220.16 C 496.479 222.788 499.088 225.058 501.767 226.966 C 505.67 229.732 508.887 233.086 513.124 235.263 C 522.892 240.234 532.542 244.044 542.074 246.698 C 546.168 250.346 550.783 253.106 555.922 254.976 C 563.311 257.656 567.444 259.2 568.319 259.604 C 587.529 268.483 606.443 275.923 625.063 281.925 C 640.518 286.907 656.21 293.282 671.588 296.852 C 698.826 303.168 726.364 309.719 754.203 316.506 C 757.146 317.225 760.003 318.049 762.775 318.977 C 762.841 319.985 763.344 320.717 764.286 321.173 C 765.07 321.566 765.077 321.972 764.305 322.389 C 761.755 323.782 760.44 328.588 759.46 331.138 C 758.714 333.113 757.683 335.147 756.361 337.237 C 753.497 341.777 751.124 346.392 749.241 351.085 C 748.955 351.805 748.896 352.551 749.065 353.322 C 749.288 354.29 749.073 355.139 748.417 355.871 C 747.974 356.37 747.641 356.931 747.417 357.558 L 742.729 371.112 C 742.665 371.296 742.56 371.322 742.415 371.19 C 742.259 371.034 742.102 370.989 741.944 371.053 C 741.292 371.276 740.983 371.739 741.022 372.445 C 741.168 374.617 740.748 376.656 739.767 378.565 C 739.363 379.338 739.167 380.154 739.179 381.017 C 739.218 383.699 738.206 385.915 736.139 387.666 C 736.087 387.72 736.08 387.778 736.119 387.843 C 736.212 387.988 736.296 388.131 736.374 388.275 C 736.48 388.459 736.512 388.647 736.472 388.843 C 735.441 392.741 734.374 396.521 733.275 400.18 C 732.333 403.293 731.543 406.535 730.902 409.909 C 730.262 413.336 729.195 416.539 727.705 419.52 C 726.645 421.627 725.634 423.725 724.664 425.816 C 723.684 427.895 722.442 430.022 720.937 432.191 C 719.317 434.519 718.289 437.074 717.859 439.86 C 707.097 428.223 694.85 419.763 681.12 414.479 C 654.014 404.044 617.688 407.516 597.19 430.7 C 596.59 431.381 596.21 432.171 596.054 433.074 C 595.557 435.873 594.929 438.592 594.17 441.233 C 593.033 445.254 598.642 448.078 601.643 448.49 C 605.155 448.98 611.117 443.979 614.098 442.017 C 622.571 436.435 632.242 433.322 643.108 432.681 C 664.594 431.414 682.671 437.298 697.342 450.334 C 699.97 452.676 702.665 455.578 705.423 459.042 C 710.209 465.025 714.935 471.772 723.252 468.007 C 719.632 477.905 714.315 487.203 707.305 495.898 C 702.245 486.13 698.42 479.763 695.832 476.793 C 682.939 461.979 667.242 454.872 648.737 455.473 C 619.983 456.414 601.251 477.715 591.758 502.685 C 591.968 499.456 591.124 497.318 589.227 496.271 C 588.549 495.893 587.815 495.768 587.031 495.898 C 586.521 495.977 586.057 495.847 585.638 495.506 C 585.141 495.102 584.586 494.956 583.971 495.074 C 581.984 495.441 579.983 495.278 577.969 494.584 C 577.341 494.377 576.714 494.368 576.086 494.565 C 574.06 495.192 571.995 495.029 569.887 494.074 C 569.103 493.709 568.346 493.748 567.613 494.191 C 567.233 494.416 566.867 494.396 566.514 494.133 C 564.239 492.485 562.611 493.368 560.08 493.133 C 555.95 492.768 551.744 493.427 547.469 495.114 C 546.813 495.37 546.103 495.453 545.409 495.349 C 540.427 494.591 536.675 494.539 534.15 495.192 C 530.58 496.122 527.019 496.722 523.46 496.997 C 519.538 497.299 515.741 497.854 512.065 498.664 C 505.973 499.986 499.845 500.874 493.686 501.331 C 490.287 501.58 486.985 502.124 483.78 502.959 C 480.642 503.772 477.296 504.026 473.738 503.724 C 473.059 503.673 472.398 503.783 471.757 504.057 C 467.391 505.89 462.88 506.484 458.224 505.843 C 457.701 505.765 457.198 505.843 456.713 506.078 C 452.373 508.117 447.631 509.067 442.493 508.922 C 440.908 508.888 439.586 510.106 439.511 511.668 C 439.472 512.559 438.681 513.304 437.138 513.905 C 433.543 496.867 426.986 482.967 417.464 472.204 C 402.303 455.021 374.568 450.687 354.679 459.965 C 326.964 472.851 313.018 505.018 313.116 534.362 C 312.306 534.742 311.908 535.18 311.92 535.675 C 311.947 536.2 311.704 536.448 311.194 536.422 C 310.398 536.382 309.776 536.023 309.331 535.342 C 308.978 534.794 308.487 534.415 307.859 534.205 C 306.54 533.762 305.358 532.938 304.31 531.733 C 303.114 530.321 301.387 529.674 300.014 528.379 C 299.753 528.133 299.538 528.164 299.367 528.477 L 299.092 529.007 C 298.622 529.884 298.17 529.878 297.739 528.988 C 297.557 528.609 297.601 528.262 297.876 527.948 C 298.1 527.673 298.08 527.418 297.817 527.183 C 295.909 525.51 293.992 525.034 292.07 525.751 C 291.51 525.961 290.953 525.935 290.403 525.673 C 289.03 525.019 287.547 524.633 285.951 524.516 C 285.394 524.464 284.871 524.215 284.48 523.809 C 284.311 523.641 284.126 523.476 283.93 523.319 C 283.448 522.954 282.899 522.711 282.282 522.593 C 279.694 522.11 277.236 521.548 274.908 520.907 C 274.455 520.795 273.982 520.865 273.593 521.103 C 273.097 521.416 272.574 521.475 272.025 521.279 C 269.356 520.326 266.717 519.566 264.101 519.004 C 261.186 518.376 258.557 517.468 256.216 516.277 C 253.391 514.866 250.586 513.355 247.8 511.747 C 247.565 511.617 247.318 511.558 247.055 511.57 C 246.859 511.57 246.663 511.57 246.467 511.57 C 246.128 511.57 245.808 511.491 245.506 511.335 C 241.034 508.942 236.561 506.674 232.09 504.528 C 228.952 503.018 226.578 500.527 223.361 499.115 C 222.08 498.554 220.898 497.75 219.811 496.703 C 218.294 495.239 217.104 494.317 216.242 493.937 C 213.052 492.524 209.88 490.995 206.729 489.347 C 206.599 489.269 205.109 488.229 202.256 486.228 C 199.537 484.306 196.607 483.725 193.469 484.483 C 192.502 484.706 192.135 484.339 192.371 483.384 C 192.462 483.032 192.594 482.691 192.762 482.364 C 192.892 482.113 192.861 481.811 192.684 481.6 C 192.567 481.442 192.418 481.319 192.233 481.227 C 191.801 481.005 191.535 481.136 191.429 481.619 C 190.829 484.535 189.855 486.354 188.507 487.071 C 204.657 436.965 230.41 392.813 265.767 354.616 C 273.013 346.785 280.662 339.58 288.716 333.001 C 289.465 332.384 290.595 332.635 291.011 333.511 C 293.875 339.455 296.13 345.142 301.309 349.752 C 307.535 355.283 314.411 358.298 321.943 358.794 C 342.002 360.128 357.543 354.159 368.566 340.887 C 381.237 325.626 385.336 304.423 371.037 289.143 C 366.095 283.847 359.465 281.592 353.15 278.591 C 351.772 277.944 351.453 276.122 352.522 275.021 C 358.131 269.293 365.016 264.507 372.156 261.017 C 381.624 256.387 391.033 251.817 400.381 247.307 C 411.339 242.024 425.109 237.068 441.689 232.438 C 446.121 231.197 450.646 230.151 455.261 229.3 C 458.335 228.74 458.315 228.308 455.203 228.006 C 450.287 227.535 445.415 227.523 440.59 227.967 C 427.241 229.235 410.285 232.152 389.73 236.714 C 330.665 249.856 280.001 278.01 237.738 321.173 C 219.38 339.939 201.695 361.979 184.682 387.293 C 185.466 385.332 185.369 383.718 184.387 382.449 C 184.005 381.966 183.793 381.36 183.78 380.723 C 183.728 378.133 183.446 375.598 182.936 373.112 C 181.577 366.483 179.994 359.206 178.19 351.282 C 177.04 346.182 175.188 341.429 172.638 337.022 C 169.815 332.119 167.219 327.43 164.852 322.959 C 164.669 322.62 164.532 322.639 164.44 323.018 C 164.428 323.084 164.42 323.143 164.42 323.194 C 164.459 323.692 164.263 323.81 163.832 323.547 C 163.467 323.325 163.008 323.13 162.459 322.959 C 184.441 296.257 208.992 272.342 236.111 251.209 C 242.662 246.11 250.174 241.873 257.078 237.068 C 294.424 211 339.282 192.837 386.729 181.441 C 403.586 177.4 416.778 175.015 426.31 174.282 Z M 442.849 274.701 C 441.115 267.742 433.465 263.66 425.759 265.581 C 418.055 267.501 413.214 274.699 414.95 281.659 C 416.684 288.616 424.338 292.7 432.042 290.78 C 439.746 288.857 444.585 281.661 442.849 274.701 Z M 269.239 420.748 C 277.334 427.05 289.253 425.277 295.862 416.79 C 302.47 408.3 301.263 396.31 293.169 390.01 C 285.074 383.708 273.154 385.479 266.548 393.968 C 259.94 402.456 261.144 414.446 269.239 420.748 Z M 388.357 432.681 C 397.988 433.936 407.285 438.977 415.229 444.469 C 419.799 447.607 425.938 449.354 430.292 444.646 C 435.902 438.527 427.821 428.465 422.917 424.619 C 410.771 415.101 397.485 409.838 383.062 408.83 C 360.767 407.261 341.002 413.231 323.767 426.738 C 315.47 433.21 288.873 455.571 303.544 467.007 C 307.762 470.301 313.293 468.398 315.921 464.26 C 324.394 450.857 335.589 441.756 349.501 436.957 C 362.603 432.434 375.557 431.008 388.357 432.681 Z" transform="matrix(1, 0, 0, 1, 0, -7.105427357601002e-15)"/>
  <path fill="#fff7db" d="M 188.507 487.071 C 185.278 497.624 182.676 508.499 180.7 519.691 C 179.562 526.138 177.595 532.185 174.796 537.834 C 168.362 550.877 152.455 553.25 143.236 541.599 C 135.136 531.4 135.96 515.434 137.686 503.253 C 143.512 462.181 161.909 422.266 184.682 387.293 C 201.695 361.979 219.38 339.939 237.738 321.173 C 280.001 278.01 330.665 249.856 389.73 236.714 C 410.285 232.152 427.241 229.235 440.59 227.967 C 445.415 227.523 450.287 227.535 455.203 228.006 C 458.315 228.308 458.335 228.74 455.261 229.3 C 450.646 230.151 446.121 231.197 441.689 232.438 C 425.109 237.068 411.339 242.024 400.381 247.307 C 391.033 251.817 381.624 256.387 372.156 261.017 C 365.016 264.507 358.131 269.293 352.522 275.021 C 351.453 276.122 351.772 277.944 353.15 278.591 C 359.465 281.592 366.095 283.847 371.037 289.143 C 385.336 304.423 381.237 325.626 368.566 340.887 C 357.543 354.159 342.002 360.128 321.943 358.794 C 314.411 358.298 307.535 355.283 301.309 349.752 C 296.13 345.142 293.875 339.455 291.011 333.511 C 290.595 332.635 289.465 332.384 288.716 333.001 C 280.662 339.58 273.013 346.785 265.767 354.616 C 230.41 392.813 204.657 436.965 188.507 487.071 Z" transform="matrix(1, 0, 0, 1, 0, -7.105427357601002e-15)"/>
  <path fill="#f74510" d="M 773.092 247.307 C 775.994 248.824 778.67 250.36 781.114 251.916 C 801.945 265.071 821.01 280.605 838.31 298.52 C 850.471 311.111 861.168 323.208 870.399 334.805 C 883.162 350.864 896.538 372.073 910.53 398.434 C 923.005 421.947 932.943 446.635 940.343 472.499 C 950.484 507.902 956.349 538.128 957.31 572.61 C 958.044 599.064 957.435 621.085 955.486 638.671 C 953.513 656.391 950.139 675.192 945.365 695.082 C 937.656 727.111 925.868 759.907 909.725 789.152 C 904.842 798.018 900.918 807.57 895.663 815.905 C 856.5 877.979 807.568 926.452 748.868 961.326 C 718.768 979.203 683.684 994.004 643.618 1005.734 C 631.367 1009.605 621.394 1012.312 613.706 1013.854 C 605.233 1015.554 596.308 1017.045 586.932 1018.325 C 576.159 1019.791 567.181 1020.895 560.002 1021.64 C 520.669 1025.748 479.25 1024.493 435.745 1017.874 C 414.993 1014.71 396.438 1010.598 380.08 1005.537 C 367.84 1002.491 356.955 999.117 347.422 995.417 C 328.41 988.016 308.829 979.072 288.677 968.583 C 279.733 963.929 270.934 958.659 262.276 952.774 C 241.701 938.751 220.674 923.588 204.178 907.191 C 198.4 901.452 192.959 896.019 187.859 890.892 C 176.771 879.725 165.414 866.491 153.79 851.192 C 140.479 833.657 127.427 813.115 114.639 789.563 C 104.165 770.303 94.248 746.381 84.884 717.795 L 85.453 714.01 C 85.584 713.16 85.853 713.116 86.257 713.872 C 87.768 716.736 88.729 719.541 90.906 722.071 C 97.653 729.917 104.571 737.821 111.658 745.784 C 114.756 749.276 120.727 754.429 129.565 761.241 C 144.786 772.99 160.38 788.093 173.56 797.508 C 189.123 808.609 204.873 820.209 220.812 832.304 C 230.423 839.6 240.876 845.602 250.547 852.605 C 253.175 854.514 255.916 856.201 258.765 857.665 C 266.062 861.412 272.79 866.217 279.772 870.003 C 312.881 887.957 347.468 901.922 383.532 911.899 C 395.72 915.272 408.227 917.947 421.054 919.921 C 440.394 922.903 457.544 924.765 472.502 925.51 C 484.624 926.099 498.146 926.303 513.065 926.119 C 526.363 925.942 538.858 923.981 551.744 922.862 C 561.238 922.052 570.809 920.713 580.459 918.842 C 608.626 913.409 635.615 906.446 662.703 895.05 C 680.619 887.506 693.059 881.961 700.029 878.417 C 712.06 872.297 725.541 863.529 740.473 852.114 C 755.904 840.306 768.275 829.984 777.584 821.143 C 789.38 809.937 802.664 795.31 817.44 777.266 C 826.28 766.478 833.681 755.997 839.643 745.824 C 847.934 731.69 854.741 718.515 860.062 706.301 C 867.529 689.172 874.126 669.857 879.852 648.36 C 883.293 635.415 885.796 621.614 887.365 606.954 C 889.169 590.164 889.707 572.682 888.974 554.506 C 888.83 550.858 888.379 543.005 887.62 530.949 C 886.026 505.556 880.279 478.756 870.379 450.55 C 861.959 430.217 856.049 416.762 852.648 410.183 C 843.025 391.577 831.563 374.231 818.264 358.147 C 810.575 348.85 800.474 339.415 791.392 332.706 C 783.535 326.89 773.994 322.311 762.775 318.977 C 760.003 318.049 757.146 317.225 754.203 316.506 C 726.364 309.719 698.826 303.168 671.588 296.852 C 656.21 293.282 640.518 286.907 625.063 281.925 C 606.443 275.923 587.529 268.483 568.319 259.604 C 567.444 259.2 563.311 257.656 555.922 254.976 C 550.783 253.106 546.168 250.346 542.074 246.698 C 581.578 259.095 621.481 265.764 661.781 266.705 C 675.747 267.019 688.803 266.509 700.951 265.175 C 720.211 263.056 738.05 259.166 754.458 253.504 C 763.979 250.223 770.189 248.158 773.092 247.307 Z" transform="matrix(1, 0, 0, 1, 0, -7.105427357601002e-15)"/>
  <path fill="#fff7db" d="M 442.849 274.701 C 444.585 281.661 439.746 288.857 432.042 290.78 C 424.338 292.7 416.684 288.616 414.95 281.659 C 413.214 274.699 418.055 267.501 425.759 265.581 C 433.465 263.66 441.115 267.742 442.849 274.701 Z" transform="matrix(1, 0, 0, 1, 0, -7.105427357601002e-15)"/>
  <path fill="#ff8300" d="M 762.775 318.977 C 773.994 322.311 783.535 326.89 791.392 332.706 C 800.474 339.415 810.575 348.85 818.264 358.147 C 831.563 374.231 843.025 391.577 852.648 410.183 C 856.049 416.762 861.959 430.217 870.379 450.55 C 869.191 452.094 869.211 453.388 870.438 454.433 C 871.054 454.958 870.982 455.291 870.222 455.434 C 870.132 455.448 870.045 455.481 869.967 455.532 C 869.105 456.055 868.569 455.826 868.358 454.846 C 868.255 454.323 868.014 453.865 867.633 453.472 C 867.25 453.077 866.602 453.123 866.28 453.57 C 864.475 456.042 862.207 457.062 859.473 456.63 C 858.742 456.513 858.101 456.697 857.551 457.179 C 856.689 457.925 855.668 458.345 854.491 458.435 C 853.695 458.513 853.244 458.945 853.138 459.729 C 853.074 460.135 852.936 460.528 852.726 460.906 C 852.27 461.744 851.694 461.822 851 461.141 C 850.504 460.659 850.137 460.051 849.901 459.317 C 849.77 458.867 849.264 458.631 848.804 458.807 C 845.104 460.312 842.193 462.582 840.075 465.614 C 839.696 466.151 839.545 466.746 839.624 467.398 C 839.716 468.132 839.448 468.701 838.82 469.105 C 835.342 471.394 831.943 474.165 828.62 477.421 C 828.295 477.749 828.105 478.141 828.051 478.598 C 828.026 478.861 827.961 479.102 827.855 479.324 C 827.63 479.777 827.241 480.123 826.777 480.285 C 824.594 481.069 823.298 482.58 822.892 484.816 C 822.764 485.561 822.371 486.11 821.716 486.464 L 821.225 486.719 C 820.586 487.071 820.2 487.609 820.069 488.327 C 819.65 490.602 818.493 492.238 816.597 493.23 C 816.165 493.454 815.871 493.8 815.714 494.27 C 815.374 495.304 814.793 496.161 813.968 496.839 C 813.172 497.495 812.452 498.252 811.811 499.115 C 809.457 502.306 807.123 505.489 804.809 508.667 C 804.411 509.234 804.167 509.889 804.102 510.57 C 803.984 511.97 803.247 512.747 801.886 512.903 C 800.906 513.022 800.07 513.492 799.375 514.316 C 798.736 515.075 798.742 515.84 799.395 516.611 C 799.833 517.101 799.677 517.878 799.081 518.18 C 793.472 520.926 789.882 525.308 788.313 531.321 C 788.077 532.212 787.561 532.871 786.763 533.303 C 784.633 534.479 782.913 536.049 781.605 538.01 C 779.946 540.509 777.631 542.064 774.661 542.679 C 774.269 542.757 774.218 542.941 774.504 543.227 C 774.571 543.281 774.642 543.32 774.72 543.346 C 775.297 543.437 775.465 543.765 775.23 544.326 C 774.734 545.491 774.249 546.687 773.778 547.916 C 773.532 548.543 773.072 548.871 772.405 548.896 C 771.06 548.974 769.64 549.551 768.15 550.622 C 767.666 550.975 767.372 551.445 767.267 552.034 C 767.02 553.514 767.353 554.67 768.267 555.506 C 768.726 555.926 768.746 556.369 768.325 556.84 C 768.143 557.05 767.934 557.207 767.698 557.311 C 766.824 557.678 766.594 558.285 767.012 559.135 C 767.443 560.051 767.47 560.959 767.09 561.861 C 766.869 562.384 766.992 562.797 767.463 563.097 C 768.679 563.856 769.452 564.862 769.778 566.118 C 769.948 566.784 769.804 567.381 769.346 567.902 C 768.208 569.224 768.255 570.394 769.483 571.413 C 769.871 571.729 769.958 572.284 769.679 572.688 C 769.286 573.265 769.085 573.912 769.072 574.63 C 769.059 575.428 769.275 576.187 769.718 576.906 C 772.256 580.973 774.689 585.065 777.015 589.184 C 778.113 591.134 778.97 593.233 779.584 595.48 C 780.173 597.613 780.926 599.751 781.84 601.894 C 783.213 605.085 783.594 608.557 782.978 612.309 C 782.664 614.152 782.639 615.828 782.899 617.331 C 783.056 618.311 782.868 619.188 782.33 619.959 C 781.73 620.81 781.887 621.469 782.801 621.94 C 784.566 622.869 785.116 623.96 784.449 625.216 C 762.612 618.835 741.089 619.521 719.878 627.275 C 707.168 631.918 696.675 639.522 688.397 650.087 C 682.462 657.657 679.571 665.954 679.728 674.977 C 679.742 675.958 679.624 676.762 679.375 677.39 C 679.075 678.187 678.697 678.227 678.237 677.507 C 678.12 677.311 677.95 677.187 677.727 677.135 C 677.205 677.044 676.708 677.095 676.237 677.291 C 674.328 678.076 672.419 678.933 670.509 679.861 C 670.287 679.967 670.13 680.144 670.039 680.39 C 669.987 680.575 670.105 680.732 670.391 680.861 C 670.784 681.032 670.842 681.273 670.568 681.587 C 669.34 683.077 668.849 684.837 669.097 686.863 C 669.214 687.923 669.058 687.969 668.626 687.001 C 668.548 686.832 668.522 686.647 668.548 686.452 C 668.626 685.876 668.508 685.837 668.195 686.334 C 668.091 686.518 667.979 686.687 667.862 686.843 C 667.653 687.118 667.488 687.093 667.371 686.765 C 666.979 685.616 667.011 684.537 667.469 683.528 C 667.679 683.072 667.698 682.606 667.527 682.136 C 667.292 681.457 666.855 680.947 666.214 680.606 C 665.56 680.267 664.894 680.241 664.213 680.528 C 661.284 681.732 658.474 682.686 655.779 683.392 C 654.798 683.641 654.543 684.209 655.014 685.098 C 655.63 686.302 655.622 687.569 654.994 688.903 C 654.616 689.727 654.426 689.688 654.426 688.785 L 654.426 683.98 C 654.426 683.418 654.15 683.215 653.602 683.372 C 642.004 686.746 630.672 690.767 619.61 695.435 C 616.785 696.625 613.759 697.6 610.528 698.357 C 606.777 699.234 603.736 700.13 601.408 701.045 C 598.166 702.339 594.916 703.648 591.659 704.967 C 591.059 705.216 590.437 705.275 589.796 705.144 C 587.128 704.633 585.402 705.51 584.618 707.772 C 584.445 708.263 583.906 708.522 583.402 708.36 C 581.847 707.838 580.448 707.812 579.204 708.282 C 578.694 708.466 578.316 708.315 578.066 707.831 C 577.949 707.623 577.898 707.393 577.91 707.144 C 577.949 706.674 577.733 706.447 577.263 706.458 C 577.066 706.458 576.878 706.492 576.694 706.556 C 576.144 706.775 575.952 707.454 576.301 707.929 C 576.472 708.153 576.556 708.394 576.556 708.654 C 576.57 708.786 576.634 708.845 576.753 708.831 C 576.831 708.82 576.89 708.786 576.929 708.734 C 577.217 708.447 577.381 708.498 577.42 708.89 C 577.433 708.957 577.433 709.021 577.42 709.086 C 577.394 709.27 577.29 709.341 577.105 709.302 C 575.55 708.949 574.648 709.695 574.399 711.538 C 574.334 712.008 574.157 712.062 573.869 711.695 C 573.74 711.513 573.615 711.33 573.496 711.146 C 572.975 710.244 573.222 709.714 574.242 709.557 C 574.791 709.479 575.074 709.1 575.085 708.419 C 575.113 707.57 574.701 707.158 573.85 707.184 C 572.936 707.211 572.359 707.668 572.124 708.557 C 571.954 709.198 571.549 709.453 570.908 709.322 C 570.084 709.153 569.338 708.615 568.671 707.713 C 581.199 700.94 592.385 692.369 602.231 681.999 C 609.645 674.173 620.964 663.601 617.904 651.44 C 617.368 649.31 615.95 647.517 613.647 646.066 C 599.328 637.004 596.249 653.754 589.463 660.992 C 567.043 684.882 538.858 699.357 506.494 696.985 C 479.27 694.972 456.805 683.764 439.1 663.365 C 434.255 657.775 429.508 649.655 423.82 645.772 C 419.308 642.699 415.099 643.176 411.188 647.204 C 403.597 655.029 408.775 666.091 415.013 673.133 C 423.427 682.647 433.176 692.728 443.376 699.828 C 461.958 712.723 482.937 719.77 506.318 720.973 L 506.945 724.072 C 507.214 725.401 506.451 726.726 505.161 727.171 C 493.602 731.093 482.388 732.363 471.522 730.976 C 470.384 730.819 470.28 731.082 471.208 731.761 C 471.836 732.219 472.517 732.447 473.247 732.447 C 473.693 732.447 473.948 732.663 474.013 733.094 C 474.08 733.447 473.962 733.769 473.66 734.055 C 473.473 734.218 473.223 734.289 472.973 734.251 C 472.267 734.147 471.856 734.428 471.737 735.095 C 471.647 735.661 470.977 735.916 470.532 735.554 C 470.528 735.551 470.525 735.549 470.521 735.546 C 469.633 734.789 468.666 734.514 467.619 734.722 C 465.684 735.089 463.774 735.036 461.891 734.566 C 459.408 733.938 457.576 733.644 456.399 733.683 C 453.654 733.78 451.28 733.899 448.592 733.271 C 439.087 731.087 429.849 728.714 420.878 726.15 C 420.397 726.025 419.978 725.718 419.701 725.288 C 419.347 724.752 418.877 724.405 418.289 724.248 C 414.915 723.32 411.653 721.953 408.501 720.148 C 404.292 717.731 400.204 715.71 396.242 714.088 C 392.189 712.429 388.213 710.643 384.317 708.734 C 379.883 706.576 375.596 705.112 371.449 704.339 C 367.383 703.583 363.598 702.732 360.093 701.79 C 356.85 700.915 353.66 700.574 350.521 700.769 C 346.872 701.005 343.35 701.078 339.948 700.985 C 338.772 700.946 337.589 701.097 336.399 701.437 C 335.771 701.622 335.162 701.568 334.575 701.279 C 333.058 700.562 330.646 700.229 327.337 700.279 C 343.008 691.08 351.325 673.976 342.067 658.011 C 332.26 641.064 317.459 629.931 297.661 624.607 C 282.545 620.527 267.455 619.782 252.391 622.372 C 232.736 625.745 209.376 639.632 206.983 661.6 C 205.669 673.702 213.731 684.509 223.106 691.355 C 225.199 693.826 227.9 695.776 231.207 697.2 C 231.605 697.367 231.945 697.648 232.188 698.004 C 232.764 698.842 233.555 699.13 234.561 698.867 C 234.745 698.816 234.915 698.855 235.071 698.985 C 235.202 699.117 235.334 699.248 235.463 699.378 C 235.66 699.613 235.608 699.719 235.306 699.691 C 233.423 699.534 231.568 699.592 229.736 699.868 C 228.965 699.985 228.873 699.784 229.462 699.259 C 229.579 699.156 229.749 699.142 229.971 699.22 C 230.194 699.287 230.343 699.214 230.423 699.005 C 230.632 698.456 230.548 697.979 230.168 697.573 C 229.669 697.016 228.777 697.094 228.382 697.73 C 228.096 698.188 227.71 698.337 227.225 698.181 C 226.194 697.855 225.925 698.175 226.421 699.142 C 226.578 699.456 226.676 699.789 226.715 700.142 C 226.803 700.778 226.177 701.274 225.578 701.045 C 224.401 700.601 223.192 700.313 221.949 700.181 C 220.643 700.039 219.399 699.64 218.222 698.985 C 214.352 696.88 210.455 694.899 206.532 693.042 C 205.187 692.402 204.61 692.82 204.806 694.297 L 204.904 695.082 C 205.089 696.469 204.578 696.808 203.374 696.102 L 200.001 694.16 C 199.686 693.977 199.471 693.722 199.353 693.395 L 198.215 690.316 C 197.969 689.649 197.504 689.407 196.823 689.59 C 195.881 689.864 195.267 689.491 194.98 688.472 C 194.744 687.623 194.293 687.485 193.626 688.059 L 191.449 689.903 C 191.252 690.061 191.03 690.139 190.782 690.139 C 190.6 690.139 190.429 690.119 190.272 690.08 C 189.384 689.833 189.535 689.676 190.723 689.61 C 190.998 689.597 191.207 689.491 191.351 689.295 C 191.678 688.813 191.594 688.413 191.095 688.099 C 187.212 685.72 183.337 683.615 179.465 681.783 C 177.268 680.738 175.242 679.476 173.383 677.997 C 171.422 676.429 169.489 674.957 167.578 673.585 C 166.029 672.447 165.597 670.799 164.087 669.505 C 160.544 666.445 157.157 663.143 153.926 659.599 C 150.16 655.469 146.069 651.597 141.648 647.988 C 139.754 646.433 137.981 644.667 136.333 642.692 C 134.62 640.652 132.712 638.743 130.605 636.965 C 127.323 634.192 124.278 631.335 121.464 628.393 C 118.654 625.451 115.751 622.744 112.756 620.273 C 107.67 616.075 102.845 611.23 98.281 605.738 C 96.386 603.451 94.077 601.397 91.357 599.58 C 90.939 599.304 90.612 598.952 90.377 598.52 C 89.827 597.528 89.12 596.592 88.258 595.715 C 83.786 591.231 79.4 587.007 75.097 583.044 C 74.639 582.627 74.116 582.503 73.527 582.672 C 72.26 583.065 71.26 582.652 70.527 581.436 C 70.484 581.376 70.389 581.383 70.358 581.452 C 70.354 581.46 70.352 581.467 70.35 581.476 C 69.907 583.765 69.644 584.942 69.566 585.006 C 69.514 585.045 69.456 585.059 69.389 585.045 L 69.369 585.045 C 69.201 585.02 69.128 584.922 69.153 584.751 C 69.495 581.573 69.624 578.357 69.546 575.101 C 69.534 574.722 69.35 574.454 68.996 574.297 C 68.918 574.258 68.853 574.271 68.8 574.336 C 68.069 575.031 67.73 574.854 67.78 573.806 C 67.834 572.722 67.618 571.976 67.133 571.57 C 67.24 561.555 68.422 548.531 70.683 532.498 C 78.582 476.729 96.936 424.698 125.74 376.408 C 136.856 357.774 149.095 339.958 162.459 322.959 C 163.008 323.13 163.467 323.325 163.832 323.547 C 164.263 323.81 164.459 323.692 164.42 323.194 C 164.42 323.143 164.428 323.084 164.44 323.018 C 164.532 322.639 164.669 322.62 164.852 322.959 C 167.219 327.43 169.815 332.119 172.638 337.022 C 175.188 341.429 177.04 346.182 178.19 351.282 C 179.994 359.206 181.577 366.483 182.936 373.112 C 183.446 375.598 183.728 378.133 183.78 380.723 C 183.793 381.36 184.005 381.966 184.387 382.449 C 185.369 383.718 185.466 385.332 184.682 387.293 C 161.909 422.266 143.512 462.181 137.686 503.253 C 135.96 515.434 135.136 531.4 143.236 541.599 C 152.455 553.25 168.362 550.877 174.796 537.834 C 177.595 532.185 179.562 526.138 180.7 519.691 C 182.676 508.499 185.278 497.624 188.507 487.071 C 189.855 486.354 190.829 484.535 191.429 481.619 C 191.535 481.136 191.801 481.005 192.233 481.227 C 192.418 481.319 192.567 481.442 192.684 481.6 C 192.861 481.811 192.892 482.113 192.762 482.364 C 192.594 482.691 192.462 483.032 192.371 483.384 C 192.135 484.339 192.502 484.706 193.469 484.483 C 196.607 483.725 199.537 484.306 202.256 486.228 C 205.109 488.229 206.599 489.269 206.729 489.347 C 209.88 490.995 213.052 492.524 216.242 493.937 C 217.104 494.317 218.294 495.239 219.811 496.703 C 220.898 497.75 222.08 498.554 223.361 499.115 C 226.578 500.527 228.952 503.018 232.09 504.528 C 236.561 506.674 241.034 508.942 245.506 511.335 C 245.808 511.491 246.128 511.57 246.467 511.57 C 246.663 511.57 246.859 511.57 247.055 511.57 C 247.318 511.558 247.565 511.617 247.8 511.747 C 250.586 513.355 253.391 514.866 256.216 516.277 C 258.557 517.468 261.186 518.376 264.101 519.004 C 266.717 519.566 269.356 520.326 272.025 521.279 C 272.574 521.475 273.097 521.416 273.593 521.103 C 273.982 520.865 274.455 520.795 274.908 520.907 C 277.236 521.548 279.694 522.11 282.282 522.593 C 282.899 522.711 283.448 522.954 283.93 523.319 C 284.126 523.476 284.311 523.641 284.48 523.809 C 284.871 524.215 285.394 524.464 285.951 524.516 C 287.547 524.633 289.03 525.019 290.403 525.673 C 290.953 525.935 291.51 525.961 292.07 525.751 C 293.992 525.034 295.909 525.51 297.817 527.183 C 298.08 527.418 298.1 527.673 297.876 527.948 C 297.601 528.262 297.557 528.609 297.739 528.988 C 298.17 529.878 298.622 529.884 299.092 529.007 L 299.367 528.477 C 299.538 528.164 299.753 528.133 300.014 528.379 C 301.387 529.674 303.114 530.321 304.31 531.733 C 305.358 532.938 306.54 533.762 307.859 534.205 C 308.487 534.415 308.978 534.794 309.331 535.342 C 309.776 536.023 310.398 536.382 311.194 536.422 C 311.704 536.448 311.947 536.2 311.92 535.675 C 311.908 535.18 312.306 534.742 313.116 534.362 C 312.371 548.288 314.949 562.693 320.845 577.573 C 330.279 601.384 347.383 618.389 374.019 621.037 C 405.343 624.156 427.252 595.029 434.725 568.196 C 439.629 550.571 440.433 532.473 437.138 513.905 C 438.681 513.304 439.472 512.559 439.511 511.668 C 439.586 510.106 440.908 508.888 442.493 508.922 C 447.631 509.067 452.373 508.117 456.713 506.078 C 457.198 505.843 457.701 505.765 458.224 505.843 C 462.88 506.484 467.391 505.89 471.757 504.057 C 472.398 503.783 473.059 503.673 473.738 503.724 C 477.296 504.026 480.642 503.772 483.78 502.959 C 486.985 502.124 490.287 501.58 493.686 501.331 C 499.845 500.874 505.973 499.986 512.065 498.664 C 515.741 497.854 519.538 497.299 523.46 496.997 C 527.019 496.722 530.58 496.122 534.15 495.192 C 536.675 494.539 540.427 494.591 545.409 495.349 C 546.103 495.453 546.813 495.37 547.469 495.114 C 551.744 493.427 555.95 492.768 560.08 493.133 C 562.611 493.368 564.239 492.485 566.514 494.133 C 566.867 494.396 567.233 494.416 567.613 494.191 C 568.346 493.748 569.103 493.709 569.887 494.074 C 571.995 495.029 574.06 495.192 576.086 494.565 C 576.714 494.368 577.341 494.377 577.969 494.584 C 579.983 495.278 581.984 495.441 583.971 495.074 C 584.586 494.956 585.141 495.102 585.638 495.506 C 586.057 495.847 586.521 495.977 587.031 495.898 C 587.815 495.768 588.549 495.893 589.227 496.271 C 591.124 497.318 591.968 499.456 591.758 502.685 C 584.489 527.151 585.161 551.421 593.778 575.493 C 604.056 604.209 634.32 631.57 667.136 618.311 C 689.358 609.328 703.265 589.694 709.993 567.392 C 717.16 543.62 716.263 519.788 707.305 495.898 C 714.315 487.203 719.632 477.905 723.252 468.007 C 733.843 459.906 724.233 446.921 717.859 439.86 C 718.289 437.074 719.317 434.519 720.937 432.191 C 722.442 430.022 723.684 427.895 724.664 425.816 C 725.634 423.725 726.645 421.627 727.705 419.52 C 729.195 416.539 730.262 413.336 730.902 409.909 C 731.543 406.535 732.333 403.293 733.275 400.18 C 734.374 396.521 735.441 392.741 736.472 388.843 C 736.512 388.647 736.48 388.459 736.374 388.275 C 736.296 388.131 736.212 387.988 736.119 387.843 C 736.08 387.778 736.087 387.72 736.139 387.666 C 738.206 385.915 739.218 383.699 739.179 381.017 C 739.167 380.154 739.363 379.338 739.767 378.565 C 740.748 376.656 741.168 374.617 741.022 372.445 C 740.983 371.739 741.292 371.276 741.944 371.053 C 742.102 370.989 742.259 371.034 742.415 371.19 C 742.56 371.322 742.665 371.296 742.729 371.112 L 747.417 357.558 C 747.641 356.931 747.974 356.37 748.417 355.871 C 749.073 355.139 749.288 354.29 749.065 353.322 C 748.896 352.551 748.955 351.805 749.241 351.085 C 751.124 346.392 753.497 341.777 756.361 337.237 C 757.683 335.147 758.714 333.113 759.46 331.138 C 760.44 328.588 761.755 323.782 764.305 322.389 C 765.077 321.972 765.07 321.566 764.286 321.173 C 763.344 320.717 762.841 319.985 762.775 318.977 Z" transform="matrix(1, 0, 0, 1, 0, -7.105427357601002e-15)"/>
  <path fill="#fff7db" d="M 269.239 420.748 C 261.144 414.446 259.94 402.456 266.548 393.968 C 273.154 385.479 285.074 383.708 293.169 390.01 C 301.263 396.31 302.47 408.3 295.862 416.79 C 289.253 425.277 277.334 427.05 269.239 420.748 Z" transform="matrix(1, 0, 0, 1, 0, -7.105427357601002e-15)"/>
  <path fill="#3e0d24" d="M 415.229 444.469 C 407.285 438.977 397.988 433.936 388.357 432.681 C 375.557 431.008 362.603 432.434 349.501 436.957 C 335.589 441.756 324.394 450.857 315.921 464.26 C 313.293 468.398 307.762 470.301 303.544 467.007 C 288.873 455.571 315.47 433.21 323.767 426.738 C 341.002 413.231 360.767 407.261 383.062 408.83 C 397.485 409.838 410.771 415.101 422.917 424.619 C 427.821 428.465 435.902 438.527 430.292 444.646 C 425.938 449.354 419.799 447.607 415.229 444.469 Z" transform="matrix(1, 0, 0, 1, 0, -7.105427357601002e-15)"/>
  <path fill="#3e0d24" d="M 717.859 439.86 C 724.233 446.921 733.843 459.906 723.252 468.007 C 714.935 471.772 710.209 465.025 705.423 459.042 C 702.665 455.578 699.97 452.676 697.342 450.334 C 682.671 437.298 664.594 431.414 643.108 432.681 C 632.242 433.322 622.571 436.435 614.098 442.017 C 611.117 443.979 605.155 448.98 601.643 448.49 C 598.642 448.078 593.033 445.254 594.17 441.233 C 594.929 438.592 595.557 435.873 596.054 433.074 C 596.21 432.171 596.59 431.381 597.19 430.7 C 617.688 407.516 654.014 404.044 681.12 414.479 C 694.85 419.763 707.097 428.223 717.859 439.86 Z" transform="matrix(1, 0, 0, 1, 0, -7.105427357601002e-15)"/>
  <path fill="#ff7500" d="M 870.379 450.55 C 880.279 478.756 886.026 505.556 887.62 530.949 C 888.379 543.005 888.83 550.858 888.974 554.506 C 889.707 572.682 889.169 590.164 887.365 606.954 C 885.796 621.614 883.293 635.415 879.852 648.36 C 874.126 669.857 867.529 689.172 860.062 706.301 C 854.741 718.515 847.934 731.69 839.643 745.824 C 833.681 755.997 826.28 766.478 817.44 777.266 C 802.664 795.31 789.38 809.937 777.584 821.143 C 768.275 829.984 755.904 840.306 740.473 852.114 C 725.541 863.529 712.06 872.297 700.029 878.417 C 693.059 881.961 680.619 887.506 662.703 895.05 C 635.615 906.446 608.626 913.409 580.459 918.842 C 570.809 920.713 561.238 922.052 551.744 922.862 C 538.858 923.981 526.363 925.942 513.065 926.119 C 498.146 926.303 484.624 926.099 472.502 925.51 C 457.544 924.765 440.394 922.903 421.054 919.921 C 408.227 917.947 395.72 915.272 383.532 911.899 C 347.468 901.922 312.881 887.957 279.772 870.003 C 272.79 866.217 266.062 861.412 258.765 857.665 C 255.916 856.201 253.175 854.514 250.547 852.605 C 240.876 845.602 230.423 839.6 220.812 832.304 C 204.873 820.209 189.123 808.609 173.56 797.508 C 160.38 788.093 144.786 772.99 129.565 761.241 C 120.727 754.429 114.756 749.276 111.658 745.784 C 104.571 737.821 97.653 729.917 90.906 722.071 C 88.729 719.541 87.768 716.736 86.257 713.872 C 85.853 713.116 85.584 713.16 85.453 714.01 L 84.884 717.795 C 70.083 670.146 64.165 621.404 67.133 571.57 C 67.618 571.976 67.834 572.722 67.78 573.806 C 67.73 574.854 68.069 575.031 68.8 574.336 C 68.853 574.271 68.918 574.258 68.996 574.297 C 69.35 574.454 69.534 574.722 69.546 575.101 C 69.624 578.357 69.495 581.573 69.153 584.751 C 69.128 584.922 69.201 585.02 69.369 585.045 L 69.389 585.045 C 69.456 585.059 69.514 585.045 69.566 585.006 C 69.644 584.942 69.907 583.765 70.35 581.476 C 70.363 581.401 70.452 581.37 70.51 581.419 C 70.516 581.424 70.523 581.43 70.527 581.436 C 71.26 582.652 72.26 583.065 73.527 582.672 C 74.116 582.503 74.639 582.627 75.097 583.044 C 79.4 587.007 83.786 591.231 88.258 595.715 C 89.12 596.592 89.827 597.528 90.377 598.52 C 90.612 598.952 90.939 599.304 91.357 599.58 C 94.077 601.397 96.386 603.451 98.281 605.738 C 102.845 611.23 107.67 616.075 112.756 620.273 C 115.751 622.744 118.654 625.451 121.464 628.393 C 124.278 631.335 127.323 634.192 130.605 636.965 C 132.712 638.743 134.62 640.652 136.333 642.692 C 137.981 644.667 139.754 646.433 141.648 647.988 C 146.069 651.597 150.16 655.469 153.926 659.599 C 157.157 663.143 160.544 666.445 164.087 669.505 C 165.597 670.799 166.029 672.447 167.578 673.585 C 169.489 674.957 171.422 676.429 173.383 677.997 C 175.242 679.476 177.268 680.738 179.465 681.783 C 183.337 683.615 187.212 685.72 191.095 688.099 C 191.594 688.413 191.678 688.813 191.351 689.295 C 191.207 689.491 190.998 689.597 190.723 689.61 C 189.535 689.676 189.384 689.833 190.272 690.08 C 190.429 690.119 190.6 690.139 190.782 690.139 C 191.03 690.139 191.252 690.061 191.449 689.903 L 193.626 688.059 C 194.293 687.485 194.744 687.623 194.98 688.472 C 195.267 689.491 195.881 689.864 196.823 689.59 C 197.504 689.407 197.969 689.649 198.215 690.316 L 199.353 693.395 C 199.471 693.722 199.686 693.977 200.001 694.16 L 203.374 696.102 C 204.578 696.808 205.089 696.469 204.904 695.082 L 204.806 694.297 C 204.61 692.82 205.187 692.402 206.532 693.042 C 210.455 694.899 214.352 696.88 218.222 698.985 C 219.399 699.64 220.643 700.039 221.949 700.181 C 223.192 700.313 224.401 700.601 225.578 701.045 C 226.177 701.274 226.803 700.778 226.715 700.142 C 226.676 699.789 226.578 699.456 226.421 699.142 C 225.925 698.175 226.194 697.855 227.225 698.181 C 227.71 698.337 228.096 698.188 228.382 697.73 C 228.777 697.094 229.669 697.016 230.168 697.573 C 230.548 697.979 230.632 698.456 230.423 699.005 C 230.343 699.214 230.194 699.287 229.971 699.22 C 229.749 699.142 229.579 699.156 229.462 699.259 C 228.873 699.784 228.965 699.985 229.736 699.868 C 231.568 699.592 233.423 699.534 235.306 699.691 C 235.608 699.719 235.66 699.613 235.463 699.378 C 235.334 699.248 235.202 699.117 235.071 698.985 C 234.915 698.855 234.745 698.816 234.561 698.867 C 233.555 699.13 232.764 698.842 232.188 698.004 C 231.945 697.648 231.605 697.367 231.207 697.2 C 227.9 695.776 225.199 693.826 223.106 691.355 C 233.647 697.685 243.094 702.019 251.449 704.359 C 268.384 709.12 286.494 709.87 305.781 706.615 C 312.438 705.505 319.623 703.393 327.337 700.279 C 330.646 700.229 333.058 700.562 334.575 701.279 C 335.162 701.568 335.771 701.622 336.399 701.437 C 337.589 701.097 338.772 700.946 339.948 700.985 C 343.35 701.078 346.872 701.005 350.521 700.769 C 353.66 700.574 356.85 700.915 360.093 701.79 C 363.598 702.732 367.383 703.583 371.449 704.339 C 375.596 705.112 379.883 706.576 384.317 708.734 C 388.213 710.643 392.189 712.429 396.242 714.088 C 400.204 715.71 404.292 717.731 408.501 720.148 C 411.653 721.953 414.915 723.32 418.289 724.248 C 418.877 724.405 419.347 724.752 419.701 725.288 C 419.978 725.718 420.397 726.025 420.878 726.15 C 429.849 728.714 439.087 731.087 448.592 733.271 C 451.28 733.899 453.654 733.78 456.399 733.683 C 457.576 733.644 459.408 733.938 461.891 734.566 C 463.774 735.036 465.684 735.089 467.619 734.722 C 468.666 734.514 469.633 734.789 470.521 735.546 C 470.96 735.916 471.636 735.672 471.735 735.106 C 471.737 735.102 471.737 735.099 471.737 735.095 C 471.856 734.428 472.267 734.147 472.973 734.251 C 473.223 734.289 473.473 734.218 473.66 734.055 C 473.962 733.769 474.08 733.447 474.013 733.094 C 473.948 732.663 473.693 732.447 473.247 732.447 C 472.517 732.447 471.836 732.219 471.208 731.761 C 470.28 731.082 470.384 730.819 471.522 730.976 C 482.388 732.363 493.602 731.093 505.161 727.171 C 506.451 726.726 507.214 725.401 506.945 724.072 L 506.318 720.973 C 529.325 722.267 547.998 718.07 568.671 707.713 C 569.338 708.615 570.084 709.153 570.908 709.322 C 571.549 709.453 571.954 709.198 572.124 708.557 C 572.359 707.668 572.936 707.211 573.85 707.184 C 574.701 707.158 575.113 707.57 575.085 708.419 C 575.074 709.1 574.791 709.479 574.242 709.557 C 573.222 709.714 572.975 710.244 573.496 711.146 C 573.615 711.33 573.74 711.513 573.869 711.695 C 574.157 712.062 574.334 712.008 574.399 711.538 C 574.648 709.695 575.55 708.949 577.105 709.302 C 577.29 709.341 577.394 709.27 577.42 709.086 C 577.433 709.021 577.433 708.957 577.42 708.89 C 577.381 708.498 577.217 708.447 576.929 708.734 C 576.89 708.786 576.831 708.82 576.753 708.831 C 576.634 708.845 576.57 708.786 576.556 708.654 C 576.556 708.394 576.472 708.153 576.301 707.929 C 575.952 707.454 576.144 706.775 576.694 706.556 C 576.878 706.492 577.066 706.458 577.263 706.458 C 577.733 706.447 577.949 706.674 577.91 707.144 C 577.898 707.393 577.949 707.623 578.066 707.831 C 578.316 708.315 578.694 708.466 579.204 708.282 C 580.448 707.812 581.847 707.838 583.402 708.36 C 583.906 708.522 584.445 708.263 584.618 707.772 C 585.402 705.51 587.128 704.633 589.796 705.144 C 590.437 705.275 591.059 705.216 591.659 704.967 C 594.916 703.648 598.166 702.339 601.408 701.045 C 603.736 700.13 606.777 699.234 610.528 698.357 C 613.759 697.6 616.785 696.625 619.61 695.435 C 630.672 690.767 642.004 686.746 653.602 683.372 C 654.15 683.215 654.426 683.418 654.426 683.98 L 654.426 688.785 C 654.426 689.688 654.616 689.727 654.994 688.903 C 655.622 687.569 655.63 686.302 655.014 685.098 C 654.543 684.209 654.798 683.641 655.779 683.392 C 658.474 682.686 661.284 681.732 664.213 680.528 C 664.894 680.241 665.56 680.267 666.214 680.606 C 666.855 680.947 667.292 681.457 667.527 682.136 C 667.698 682.606 667.679 683.072 667.469 683.528 C 667.011 684.537 666.979 685.616 667.371 686.765 C 667.488 687.093 667.653 687.118 667.862 686.843 C 667.979 686.687 668.091 686.518 668.195 686.334 C 668.508 685.837 668.626 685.876 668.548 686.452 C 668.522 686.647 668.548 686.832 668.626 687.001 C 669.058 687.969 669.214 687.923 669.097 686.863 C 668.849 684.837 669.34 683.077 670.568 681.587 C 670.842 681.273 670.784 681.032 670.391 680.861 C 670.105 680.732 669.987 680.575 670.039 680.39 C 670.13 680.144 670.287 679.967 670.509 679.861 C 672.419 678.933 674.328 678.076 676.237 677.291 C 676.708 677.095 677.205 677.044 677.727 677.135 C 677.95 677.187 678.12 677.311 678.237 677.507 C 678.697 678.227 679.075 678.187 679.375 677.39 C 679.624 676.762 679.742 675.958 679.728 674.977 C 681.003 685.373 687.397 692.748 696.223 698.063 C 710.581 706.732 723.036 708.537 739.512 708.635 C 760.265 708.741 779.514 704.034 797.257 694.513 C 801.12 692.434 804.161 689.629 807.614 687.02 C 814.262 681.979 817.558 674.291 818.577 666.17 C 820.343 652.264 809.555 638.788 798.316 631.747 C 793.976 629.028 789.352 626.851 784.449 625.216 C 785.116 623.96 784.566 622.869 782.801 621.94 C 781.887 621.469 781.73 620.81 782.33 619.959 C 782.868 619.188 783.056 618.311 782.899 617.331 C 782.639 615.828 782.664 614.152 782.978 612.309 C 783.594 608.557 783.213 605.085 781.84 601.894 C 780.926 599.751 780.173 597.613 779.584 595.48 C 778.97 593.233 778.113 591.134 777.015 589.184 C 774.689 585.065 772.256 580.973 769.718 576.906 C 769.275 576.187 769.059 575.428 769.072 574.63 C 769.085 573.912 769.286 573.265 769.679 572.688 C 769.958 572.284 769.871 571.729 769.483 571.413 C 768.255 570.394 768.208 569.224 769.346 567.902 C 769.804 567.381 769.948 566.784 769.778 566.118 C 769.452 564.862 768.679 563.856 767.463 563.097 C 766.992 562.797 766.869 562.384 767.09 561.861 C 767.47 560.959 767.443 560.051 767.012 559.135 C 766.594 558.285 766.824 557.678 767.698 557.311 C 767.934 557.207 768.143 557.05 768.325 556.84 C 768.746 556.369 768.726 555.926 768.267 555.506 C 767.353 554.67 767.02 553.514 767.267 552.034 C 767.372 551.445 767.666 550.975 768.15 550.622 C 769.64 549.551 771.06 548.974 772.405 548.896 C 773.072 548.871 773.532 548.543 773.778 547.916 C 774.249 546.687 774.734 545.491 775.23 544.326 C 775.465 543.765 775.297 543.437 774.72 543.346 C 774.642 543.32 774.571 543.281 774.504 543.227 C 774.218 542.941 774.269 542.757 774.661 542.679 C 777.631 542.064 779.946 540.509 781.605 538.01 C 782.913 536.049 784.633 534.479 786.763 533.303 C 787.561 532.871 788.077 532.212 788.313 531.321 C 789.882 525.308 793.472 520.926 799.081 518.18 C 799.677 517.878 799.833 517.101 799.395 516.611 C 798.742 515.84 798.736 515.075 799.375 514.316 C 800.07 513.492 800.906 513.022 801.886 512.903 C 803.247 512.747 803.984 511.97 804.102 510.57 C 804.167 509.889 804.411 509.234 804.809 508.667 C 807.123 505.489 809.457 502.306 811.811 499.115 C 812.452 498.252 813.172 497.495 813.968 496.839 C 814.793 496.161 815.374 495.304 815.714 494.27 C 815.871 493.8 816.165 493.454 816.597 493.23 C 818.493 492.238 819.65 490.602 820.069 488.327 C 820.2 487.609 820.586 487.071 821.225 486.719 L 821.716 486.464 C 822.371 486.11 822.764 485.561 822.892 484.816 C 823.298 482.58 824.594 481.069 826.777 480.285 C 827.241 480.123 827.63 479.777 827.855 479.324 C 827.961 479.102 828.026 478.861 828.051 478.598 C 828.105 478.141 828.295 477.749 828.62 477.421 C 831.943 474.165 835.342 471.394 838.82 469.105 C 839.448 468.701 839.716 468.132 839.624 467.398 C 839.545 466.746 839.696 466.151 840.075 465.614 C 842.193 462.582 845.104 460.312 848.804 458.807 C 849.264 458.631 849.77 458.867 849.901 459.317 C 850.137 460.051 850.504 460.659 851 461.141 C 851.694 461.822 852.27 461.744 852.726 460.906 C 852.936 460.528 853.074 460.135 853.138 459.729 C 853.244 458.945 853.695 458.513 854.491 458.435 C 855.668 458.345 856.689 457.925 857.551 457.179 C 858.101 456.697 858.742 456.513 859.473 456.63 C 862.207 457.062 864.475 456.042 866.28 453.57 C 866.602 453.123 867.25 453.077 867.633 453.472 C 868.014 453.865 868.255 454.323 868.358 454.846 C 868.569 455.826 869.105 456.055 869.967 455.532 C 870.045 455.481 870.132 455.448 870.222 455.434 C 870.982 455.291 871.054 454.958 870.438 454.433 C 869.211 453.388 869.191 452.094 870.379 450.55 Z" transform="matrix(1, 0, 0, 1, 0, -7.105427357601002e-15)"/>
  <path fill="#3e0d24" d="M 437.138 513.905 C 440.433 532.473 439.629 550.571 434.725 568.196 C 427.252 595.029 405.343 624.156 374.019 621.037 C 347.383 618.389 330.279 601.384 320.845 577.573 C 314.949 562.693 312.371 548.288 313.116 534.362 C 313.018 505.018 326.964 472.851 354.679 459.965 C 374.568 450.687 402.303 455.021 417.464 472.204 C 426.986 482.967 433.543 496.867 437.138 513.905 Z" transform="matrix(1, 0, 0, 1, 0, -7.105427357601002e-15)"/>
  <path fill="#3e0d24" d="M 707.305 495.898 C 716.263 519.788 717.16 543.62 709.993 567.392 C 703.265 589.694 689.358 609.328 667.136 618.311 C 634.32 631.57 604.056 604.209 593.778 575.493 C 585.161 551.421 584.489 527.151 591.758 502.685 C 601.251 477.715 619.983 456.414 648.737 455.473 C 667.242 454.872 682.939 461.979 695.832 476.793 C 698.42 479.763 702.245 486.13 707.305 495.898 Z" transform="matrix(1, 0, 0, 1, 0, -7.105427357601002e-15)"/>
  <path fill="#f74510" d="M 327.337 700.279 C 319.623 703.393 312.438 705.505 305.781 706.615 C 286.494 709.87 268.384 709.12 251.449 704.359 C 243.094 702.019 233.647 697.685 223.106 691.355 C 213.731 684.509 205.669 673.702 206.983 661.6 C 209.376 639.632 232.736 625.745 252.391 622.372 C 267.455 619.782 282.545 620.527 297.661 624.607 C 317.459 629.931 332.26 641.064 342.067 658.011 C 351.325 673.976 343.008 691.08 327.337 700.279 Z" transform="matrix(1, 0, 0, 1, 0, -7.105427357601002e-15)"/>
  <path fill="#f74510" d="M 784.449 625.216 C 789.352 626.851 793.976 629.028 798.316 631.747 C 809.555 638.788 820.343 652.264 818.577 666.17 C 817.558 674.291 814.262 681.979 807.614 687.02 C 804.161 689.629 801.12 692.434 797.257 694.513 C 779.514 704.034 760.265 708.741 739.512 708.635 C 723.036 708.537 710.581 706.732 696.223 698.063 C 687.397 692.748 681.003 685.373 679.728 674.977 C 679.571 665.954 682.462 657.657 688.397 650.087 C 696.675 639.522 707.168 631.918 719.878 627.275 C 741.089 619.521 762.612 618.835 784.449 625.216 Z" transform="matrix(1, 0, 0, 1, 0, -7.105427357601002e-15)"/>
  <path fill="#3e0d24" d="M 568.671 707.713 C 547.998 718.07 529.325 722.267 506.318 720.973 C 482.937 719.77 461.958 712.723 443.376 699.828 C 433.176 692.728 423.427 682.647 415.013 673.133 C 408.775 666.091 403.597 655.029 411.188 647.204 C 415.099 643.176 419.308 642.699 423.82 645.772 C 429.508 649.655 434.255 657.775 439.1 663.365 C 456.805 683.764 479.27 694.972 506.494 696.985 C 538.858 699.357 567.043 684.882 589.463 660.992 C 596.249 653.754 599.328 637.004 613.647 646.066 C 615.95 647.517 617.368 649.31 617.904 651.44 C 620.964 663.601 609.645 674.173 602.231 681.999 C 592.385 692.369 581.199 700.94 568.671 707.713 Z" transform="matrix(1, 0, 0, 1, 0, -7.105427357601002e-15)"/>
</svg>